M48
INCH
T01C0.0150
T02C0.1180
T03C0.0400
T04C0.0320
T05C0.0250
T06C0.0600
T07C0.1181
T08C0.1120
T09C0.0500
T10C0.0300
T11C0.0450
T12C0.0690
%
T01
X+067025Y+036024
X+066788Y+020409
X+062115Y+031399
X+062108Y+033789
X+064729Y+035975
X-005351Y+012827
X-005351Y+011276
X-002101Y-012723
X-004728Y+017452
X+003398Y-016973
X-000844Y+013793
X+004918Y+019668
X+002841Y+020777
X+003498Y+019528
X+004545Y+012039
X-000614Y+012646
X-003500Y+012619
X-003851Y+014026
X-004631Y+014977
X-005371Y+014959
X+014145Y+014902
X+012047Y+011093
X-000845Y+013791
X+003502Y+013727
X-000040Y+015287
X-001017Y+014535
X+005148Y+016276
X+002303Y+019430
X+007635Y+019866
X+004159Y+017455
X+003278Y+021000
X+003648Y+021526
X+001898Y+020276
X+001858Y+029028
X+010148Y+018026
X-000432Y+004063
X+003016Y+012171
X+004898Y+008526
X+007898Y+018026
X+010512Y+011576
X+013648Y+013276
X+001898Y+019776
X-003948Y+028997
X-001738Y+020497
X-001848Y+020980
X-001205Y+022023
X-004917Y+029882
X-006021Y+028316
X-004525Y+033781
X+001287Y+010950
X+002095Y+021524
X-002233Y+028403
X+004342Y+022942
X+007023Y+022648
X+005992Y+021675
X+001803Y+017168
X+004544Y+020483
X+003178Y+016936
X+006162Y+019987
X-005055Y+024243
X-004255Y+015341
X-001751Y+014844
X+000305Y+014536
X-004799Y+016780
X-005101Y+020016
X-000471Y+021396
X+001578Y+018136
X-002234Y+018099
X+004148Y+014776
X+004148Y+015276
X+005576Y+015149
X+011218Y-008793
X+001358Y+021366
X-001130Y+020824
X-003743Y+018498
X-003738Y+016007
X-001382Y+015246
X+000862Y+014810
X+003822Y+017183
X+001648Y+016276
X-002918Y+023013
X+001275Y+023361
X+002478Y+023343
X-003351Y+029953
X-004601Y+021026
X-008351Y+009026
X-004851Y+006316
X+006648Y+011276
X+001628Y+006266
X+007998Y+006268
X+001318Y+024346
X+000385Y+021745
X+004648Y+021601
X+007398Y+022186
X+007648Y+016276
X+007898Y+020776
X+008572Y+017560
X+006108Y+016340
X+002327Y+015753
X+000292Y+016063
X+003548Y+015070
X+002248Y+015226
X+001148Y+011916
X-000609Y+012196
X-000445Y+011479
X-001335Y+003979
X+001754Y+012657
X+003947Y+014133
X+002148Y+013776
X+000645Y+013026
X+000855Y+013446
X+009958Y+011836
X+003648Y+015526
X+007952Y+022253
X+000448Y+019746
X-002146Y+022676
X+001708Y+024731
X+004675Y+024686
X-006711Y+031196
X+009628Y+026699
X+001168Y+019093
X-002214Y+019148
X+012148Y+009026
X+009542Y+016955
X+006440Y+015065
X+008798Y+014437
X+029320Y-010855
X+032070Y-015855
X+032820Y-016605
X+057070Y-000355
X+057070Y-002355
X+033570Y-009355
X+046070Y-017105
X+046320Y-001855
X+052070Y-013105
X+019820Y-009605
X+051070Y-017605
X+022820Y-006105
X+031570Y-017355
X+026320Y-007855
X+027070Y-002355
X+024820Y-002605
X+038320Y-001315
X+043300Y-010336
X+055370Y-010891
X+052287Y-013968
X+040806Y-011145
X+041001Y-010585
X+038041Y-005003
X+038064Y-004491
X+037239Y-012241
X+036219Y-017215
X+041356Y-000701
X+044570Y-005605
X+043820Y-004605
X+041895Y+000216
X+042020Y-009051
X+044740Y-003412
X+029070Y-014355
X+027323Y-012332
X+033537Y-005063
X+036173Y-005884
X+037870Y-006505
X+034320Y-005855
X+030570Y-007605
X+027820Y-008605
X+033410Y-014095
X+039570Y+003144
X+038070Y+002744
X+036276Y-003101
X+042301Y+002391
X+050360Y+002954
X+053315Y+000008
X+045749Y-001832
X+046246Y+000324
X+058070Y-002605
X+054730Y-002355
X+056645Y-000678
X+055629Y-000683
X+027570Y-005855
X+028381Y-013317
X+030024Y-016650
X+025631Y-000795
X+028570Y-008105
X+034756Y-018731
X+034894Y-016932
X+032070Y-016355
X+031320Y-012855
X+036559Y-013801
X+044556Y-011396
X+041070Y-014105
X+043030Y-014105
X+038114Y-012237
X+038404Y-010097
X+038620Y-012185
X+040237Y-010871
X+039485Y-012326
X+038070Y-016855
X+052203Y-010855
X+051590Y-010775
X+055370Y-012395
X+052130Y-015155
X+053814Y-016565
X+055125Y-016360
X+055738Y-014372
X+056320Y-015415
X+030778Y-018658
X+049320Y-016105
X+049320Y-017105
X+048263Y-014102
X+054495Y+002049
X+051233Y+004514
X+033820Y+001144
X+030046Y+001490
X+030693Y-000587
X+037292Y+000963
X+037814Y-000079
X+055566Y-006394
X+039570Y-016605
X+024340Y-016388
X+054441Y-018460
X+053070Y-009355
X+052506Y-014883
X+053654Y-015567
X+056310Y-014265
X+053070Y-016855
X+051070Y-018605
X+050320Y-016605
X+047820Y-005855
X+029200Y-015605
X+028570Y-017605
X+028570Y-018605
X+023042Y-011873
X+025976Y-014488
X+030320Y-017915
X+031570Y-018605
X+027320Y-005105
X+022020Y+000214
X+021320Y-004855
X+022820Y-005355
X+021347Y-002502
X+021386Y+000547
X+050320Y-013605
X+046820Y-018855
X+050320Y-013105
X+037792Y-009153
X+038200Y-008208
X+034820Y-007855
X+038070Y-003605
X+036107Y-002564
X+035160Y-002585
X+036570Y-004605
X+033820Y-001855
X+040780Y-006881
X+040221Y-006007
X+030819Y-011233
X+033820Y-006855
X+024165Y+001144
X+027062Y+001575
X+023520Y+001474
X+029820Y+000144
X+030960Y+001684
X+036439Y+004306
X+024860Y-018425
X+022142Y+001627
X+020820Y+000144
X+047448Y+000359
X+045350Y-001845
X+047320Y+002394
X+043320Y-002605
X+039268Y-002401
X+035798Y-000733
X+035853Y+000511
X+032642Y-004273
X+035066Y+001654
X+028570Y-010605
X+029137Y-018767
X+030070Y-019105
X+031070Y-019105
X+028453Y-000827
X+031353Y-003546
X+031573Y-001189
X+032820Y-001105
X+036937Y+000031
X+023150Y-009935
X+022771Y-008083
X+027120Y-003685
X+033070Y-006355
X+035820Y-013105
X+032570Y-013105
X+035366Y-012754
X+038246Y-009171
X+035070Y-010755
X+030440Y-009556
X+029063Y-008317
X+039301Y-004952
X+035922Y-005333
X+030320Y-018605
X+039570Y-017605
X+044320Y+001394
X+047792Y-000120
X+050033Y-004423
X+050810Y-004355
X+050536Y-004993
X+048820Y+003394
X+048820Y-005105
X+053030Y-006645
X+042746Y-011043
X+046570Y-015605
X+053710Y-006005
X+027570Y-009105
X+028820Y-001355
X+035820Y-001605
X+039230Y-003581
X+055170Y-011705
X+055771Y-012784
X+055250Y-013152
X+058320Y-005105
X+048660Y-010355
X+048140Y-008925
X+050180Y-011205
X+056865Y-014384
X+055820Y-009745
X+055570Y-008265
X+056450Y-010415
X+054080Y-007105
X+053320Y-012355
X+053870Y-004675
X+050579Y+001158
X+050157Y+000919
X+050954Y+000145
X+043284Y+001790
X+042670Y+001638
X+040550Y-009015
X+039450Y-008405
X+039353Y-008015
X+050020Y-006015
X+048570Y-007355
X+049720Y-004025
X+048749Y-008231
X+046990Y+004921
X+054720Y+005284
X+048494Y-007853
X+049168Y+002958
X+047843Y+003377
X+045647Y+003301
X+040917Y+001002
X+039570Y+000394
X+034080Y+000234
X+034046Y-000615
X+042130Y+001544
X+040920Y+001994
X+028080Y+002644
X+039211Y-001994
X+038115Y-002291
X+045820Y-003605
X+046310Y-006815
X+043250Y-006945
X+041480Y-007435
X+044480Y-004915
X+046370Y-005450
X+043489Y-009014
X+045420Y-009005
X+049262Y-009013
X+049840Y-005445
X+053300Y-005450
X+055286Y-004091
X+053310Y-005915
X+051610Y-005922
X+049870Y+001954
X+042320Y+001894
X+039940Y+002644
X+029100Y-000985
X+049820Y-010605
X+049320Y-012605
X+049070Y-017605
X+051093Y-009683
X+051320Y-013105
X+050770Y-010105
X+042863Y-011925
X+043993Y-011872
X+046070Y-014605
X+042400Y-012195
X+036060Y-011655
X+045020Y-010185
X+038070Y-014355
X+038070Y-016355
X+033000Y-009445
X+032070Y-009445
X+032070Y-008355
X+039673Y-014955
X+051070Y-016355
X+044570Y-015355
X+042667Y-016760
X+044570Y-018355
X+054144Y-017035
X+046570Y-005855
X+046310Y-008845
X+045426Y-016600
X+043511Y-017368
X+044173Y-016464
X+043570Y-016605
X+041070Y-016105
X+043570Y-016105
X+043990Y-014315
X+038973Y-009239
X+042631Y-009029
X+041480Y-008705
X+042068Y-001809
X+029320Y-006605
X+030320Y-006605
X+034320Y-005355
X+039505Y-005713
X+038878Y-001089
X+038320Y-000105
X+039849Y-005369
X+039907Y-004498
X+041070Y-001855
X+048070Y-005105
X+046210Y+003184
X+036596Y+004810
X+030570Y+004894
X+025820Y-007855
X+023590Y-010785
X+055670Y-004845
X+055675Y-003121
X+048070Y-002605
X+047070Y-011605
X+046070Y-017855
X-033770Y+012771
X-033770Y+011220
X-030520Y-012779
X-033146Y+017397
X-025020Y-017029
X-029262Y+013738
X-023499Y+019612
X-025576Y+020721
X-024919Y+019473
X-023872Y+011983
X-029032Y+012590
X-031918Y+012563
X-032270Y+013970
X-033049Y+014921
X-033789Y+014903
X-014272Y+014847
X-016370Y+011037
X-029263Y+013735
X-024915Y+013672
X-028458Y+015231
X-029435Y+014479
X-023270Y+016220
X-026114Y+019374
X-020782Y+019810
X-024258Y+017399
X-025139Y+020944
X-024770Y+021470
X-026520Y+020220
X-026559Y+028972
X-018270Y+017970
X-028850Y+004007
X-025401Y+012116
X-023520Y+008470
X-020520Y+017970
X-017905Y+011520
X-014770Y+013220
X-026520Y+019720
X-032366Y+028942
X-030156Y+020441
X-030266Y+020924
X-029623Y+021967
X-033335Y+029826
X-034440Y+028260
X-032943Y+033726
X-027130Y+010894
X-026322Y+021468
X-030651Y+028347
X-024075Y+022886
X-021395Y+022592
X-022425Y+021619
X-026614Y+017112
X-023874Y+020427
X-025240Y+016880
X-022255Y+019932
X-033473Y+024187
X-032673Y+015285
X-030169Y+014788
X-028112Y+014480
X-033217Y+016725
X-033520Y+019960
X-028890Y+021340
X-026840Y+018080
X-030652Y+018043
X-024270Y+014720
X-024270Y+015220
X-022841Y+015093
X-017200Y-008849
X-027060Y+021310
X-029548Y+020768
X-032161Y+018442
X-032156Y+015952
X-029800Y+015190
X-027555Y+014754
X-024595Y+017127
X-026770Y+016220
X-031336Y+022958
X-027142Y+023306
X-025939Y+023287
X-031770Y+029898
X-033020Y+020970
X-036770Y+008970
X-033270Y+006260
X-021770Y+011220
X-026790Y+006210
X-020420Y+006212
X-027100Y+024290
X-028032Y+021690
X-023769Y+021545
X-021020Y+022130
X-020770Y+016220
X-020520Y+020720
X-019845Y+017505
X-022309Y+016284
X-026090Y+015697
X-028125Y+016007
X-024869Y+015014
X-026170Y+015170
X-027270Y+011860
X-029027Y+012140
X-028863Y+011423
X-029753Y+003924
X-026663Y+012601
X-024470Y+014077
X-026270Y+013720
X-027772Y+012970
X-027562Y+013390
X-018460Y+011780
X-024770Y+015470
X-020465Y+022197
X-027970Y+019690
X-030565Y+022620
X-026710Y+024675
X-023742Y+024630
X-035130Y+031140
X-018790Y+026643
X-027249Y+019037
X-030632Y+019092
X-016270Y+008970
X-018875Y+016899
X-021977Y+015009
X-019620Y+014381
X+063495Y+001091
X+066907Y+003360
X+065420Y+001098
X+064171Y+001492
X+064105Y-003144
X+065411Y+001098
X+069567Y-001340
X+067662Y-001350
X+067570Y+001108
X+066712Y+001883
X+069301Y-001036
X+067963Y-001036
X+065707Y+002870
X+065067Y+002870
X+064374Y-001402
X+064431Y-003467
X+063916Y-001440
X+064462Y-002628
X+065362Y-001330
X+061883Y-001410
X+063478Y+002610
X+064183Y+003778
X+060121Y-004325
X+061501Y-004244
X+064557Y-004669
X+069138Y-010691
X+070710Y-008703
X+065864Y-009543
X+068169Y-007640
X+068190Y-008840
X+068036Y-009756
X+065892Y-011108
X+067700Y-002531
X+067336Y-002848
X+066005Y+004766
X+065998Y+006873
X+065004Y+005002
X+065003Y+006877
X+064583Y+005357
X+064500Y+006873
X+065467Y+005650
X+065493Y+006867
X+069927Y+005109
X+066853Y+006646
X+070770Y+004719
X+070317Y+006893
X+064310Y-010563
X+066951Y-008527
X+062921Y-007353
X+062977Y-010458
X+064120Y-005765
X+063720Y-007937
X+063989Y-009197
X+060647Y-000623
X+066048Y-002524
X+067647Y-005053
X+063431Y-002067
X+061350Y+000115
X+065356Y-011013
X+060321Y+001452
X+070927Y-002870
X+064097Y-003790
X+065797Y-004723
X+067677Y-005973
X+065399Y-004411
X+067687Y-005553
X+063996Y+005811
X+063987Y+006876
X+030340Y+020606
X+021090Y+020606
X+029340Y+016606
X+027590Y+016606
X+024590Y+015106
X+025090Y+023356
X+023840Y+020606
X+023090Y+016856
X+030090Y+013106
X+026590Y+013106
X+033090Y+014606
X+034840Y+011856
X+033340Y+013356
X+034840Y+019106
X+034340Y+012106
X+032776Y+016658
X+031340Y+023356
X+031840Y+017106
X+021840Y+015106
X+031340Y+015106
X+027590Y+015106
X+033596Y+020856
X+035590Y+022603
X+032146Y+013778
X+032299Y+014347
X+032541Y+011692
X+033177Y+010082
X+033126Y+012188
X+034340Y+012856
X+029590Y+010856
X+036090Y+018356
X+033526Y+006936
X+030771Y+009728
X+022526Y+014346
X+023226Y+017628
X+024340Y+012856
X+033340Y+015356
X+038650Y+015563
X+028590Y+013606
X+026090Y+015106
X+027090Y+015106
X+031816Y+014558
X+031340Y+014356
X+031257Y+009072
X+026558Y+008802
X+025456Y+009893
X+032266Y+016788
X+031840Y+020356
X+023340Y+018856
X+035090Y+020106
X+036157Y+012580
X+040090Y+022106
X+036026Y+012144
X+039687Y+012220
X+034492Y+010481
X+031840Y+013356
X+030340Y+016106
X+026340Y+017106
X+029340Y+017106
X+025840Y+020606
X+026340Y+020356
X+025590Y+018606
X+028090Y+021101
X+040590Y+015356
X+036900Y+015703
X+038052Y+015725
X+038816Y+012852
X+031512Y+016684
X+029676Y+023808
X+034340Y+022606
X-044557Y-006640
X-056307Y+005360
X-060307Y+018860
X-057307Y-003390
X-054057Y-003390
X-054057Y-001890
X-058557Y-001890
X-056307Y+029360
X-044307Y+002110
X-057057Y+032860
X-046557Y-007890
X-064057Y+007360
X-063557Y+035110
X-054557Y-002390
X-056557Y+003360
X-056057Y-010390
X-058307Y-010390
X-043057Y+015110
X-052807Y+029860
X-051307Y+033610
X-052057Y+034360
X-055307Y+004610
X-055057Y+004110
X-054213Y+035088
X-056763Y+034726
X-059888Y-011211
X-061815Y-012437
X-060600Y-010390
X-062807Y+002610
X-063217Y+033751
X-058340Y+032060
X-058431Y+032839
X-058442Y+031269
X-057252Y+029802
X-052022Y+030607
X-050057Y+035610
X-043778Y+019745
X-060135Y+002882
X-058836Y-000679
X-059618Y+009372
X-059755Y+010825
X-059898Y+011465
X-061802Y+011672
X-061815Y+007495
X-065557Y+002610
X-057804Y+022844
X-057421Y+011777
X-053274Y+009377
X-056495Y+012330
X-059851Y+012127
X-063428Y+016195
X-061896Y+016189
X-047688Y+016815
X-049712Y+022383
X-050582Y+020109
X-049643Y+021360
X-052918Y+025475
X-051741Y+026063
X-050494Y+024110
X-050875Y+021545
X-048158Y+023595
X-047335Y+018773
X-046834Y+014309
X-044167Y+014110
X-045305Y+007035
X-046238Y+017398
X-044928Y+017402
X-051971Y-005390
X-048557Y+017110
X-049782Y+017334
X-049253Y+013954
X-049261Y+008245
X-049343Y+003894
X-053278Y+012505
X-062238Y+008475
X-061307Y+014110
X-047402Y+005644
X-047578Y+010230
X-046496Y+008293
X-048372Y+017967
X-048341Y+017474
X-052538Y+005361
X-054118Y+014479
X-051239Y+014559
X-056319Y+011648
X-058766Y+014518
X-051182Y+020621
X-051448Y+023015
X-050488Y+025585
X-052184Y+020786
X-049864Y+015748
X-053791Y+014891
X-053913Y+020268
X-053782Y+019520
X-053678Y+018885
X-050096Y+016939
X-055744Y+013193
X-052057Y+013110
X-052328Y+008395
X-052696Y+003651
X-053571Y+005437
X-053074Y+000995
X-054123Y-000171
X-049746Y+015301
X-049633Y+007755
X-050928Y-005893
X-063307Y-005890
X-046262Y+018707
X-045891Y+007797
X-051584Y+008272
X-051372Y+012319
X-054408Y-012890
X-053549Y-015043
X-052397Y-009590
X-055591Y-009535
X-049017Y-013390
X-050067Y-013389
X-049117Y-004900
X-048035Y-005612
X-047057Y-004140
X-050307Y-005390
X-047637Y-001880
X-046512Y-002072
X-047054Y+012729
X-044677Y+012694
X-044648Y+019610
X-045957Y-000810
X-046254Y+001634
X-060315Y-012813
X-058809Y-013395
X-058127Y-000300
X-052682Y-000863
X-052620Y-012546
X-055375Y-012546
X-060057Y+007360
X-057557Y+007360
X-054965Y+002177
X-052700Y+002343
X-057057Y+001860
X-055057Y+003110
X-054837Y+005090
X-058991Y+021412
X-065551Y+021953
X-047497Y+032112
X-047577Y+032794
X-046748Y+035407
X-053549Y+034031
X-055640Y+033676
X-056892Y+020276
X-059364Y+017465
X-055997Y+015105
X-056627Y+015106
X-056949Y+015504
X-058313Y+015890
X-058988Y+013465
X-060328Y+034322
X-061775Y+018276
X-060307Y+015360
X-060468Y+016325
X-058259Y+019111
X-060194Y+020727
X-060468Y+023085
X-046625Y+017760
X-046805Y+018168
X-043158Y+016056
X-051307Y+032360
X-054307Y+034610
X-055302Y+034009
X-055670Y+032380
X-057972Y+034537
X-055807Y+031610
X-058807Y+035120
X-047945Y+034490
X-052617Y+021700
X-056225Y+018558
X-058388Y+008005
X-052868Y+008355
X-052735Y+007552
X-055371Y+018895
X-054934Y+018912
X-054910Y+018429
X-054887Y+021647
X-054663Y+021340
X-054144Y+025115
X-056879Y+025966
X-054384Y+028851
X-056430Y+028866
X-054021Y+031610
X-052595Y+023947
X-044184Y+020853
X-041685Y+019956
X-040307Y+020360
X-041807Y+026930
X-044307Y+027610
X-047057Y+034110
X-049019Y+035416
X-048292Y+033688
X-052557Y+027610
X-049454Y+023338
X-048808Y+024035
X-049557Y+036360
X-044807Y+036860
X-064272Y+000981
X-053905Y+021738
X-055901Y+019996
X-060807Y+013860
X-053717Y+021360
X-060307Y+013265
X-047057Y+000110
X-049782Y+016180
X-050734Y+014910
X-055557Y+023360
X-050574Y-013869
X-050468Y-010374
X-057581Y+008433
X-056735Y+021011
X-058358Y+019775
X-058064Y+019436
X-058378Y+027387
X-061741Y+028028
X-051497Y+019940
X-055832Y+018032
X-055114Y+017669
X-056929Y+018393
X-057127Y+022110
X-059323Y+027806
X-058247Y+028360
X-056177Y+027110
X-064268Y+018825
X-059598Y+005555
X-064557Y+022610
X-058057Y+020110
X-058337Y+020830
X-050108Y+014565
X-051628Y+007175
X-051112Y+013391
X-051928Y+007565
X-051188Y+012695
X-065560Y+019740
X-065128Y+023351
X-066299Y+018426
X-049557Y-006640
X-051684Y+012782
X-053412Y+007119
X-054557Y+005610
X-059572Y+000419
X-059534Y+001555
X-047261Y+014604
X-058252Y+017369
X-059807Y+031942
X-059597Y+028740
X-062540Y+009440
X-056918Y+009065
X-054731Y+010984
X-058223Y-001373
X-046768Y+001250
X-047557Y+002110
X-054057Y+002860
X-046244Y+019109
X-047557Y+029110
X-062379Y+030464
X-054807Y+010487
X-056528Y+008802
X-064348Y+018082
X-055807Y+030855
X-052378Y+019793
X-049778Y+016605
X-051987Y+020142
X-051532Y+021698
X-049078Y+021895
X-050176Y+021812
X-047850Y+000801
X-046671Y+023770
X-049548Y+022848
X-050972Y+026825
X-047011Y+016026
X-045561Y+016020
X-043807Y+022400
X-044307Y+022110
X-040648Y+012158
X-043570Y+012155
X-047088Y+012150
X-039543Y+022943
X-044807Y+027110
X-044303Y+024576
X-044313Y+026342
X-045266Y+023470
X-039227Y+019650
T02
X+061168Y+036285
X+061168Y+019749
X+069830Y+019749
X+069830Y+036285
X+060611Y+016063
X+060613Y-013025
X+070453Y-013070
X+070453Y+016063
X+037560Y+022400
X+021025Y+022400
X+021025Y+013738
X+037560Y+013738
T03
X+060877Y+024482
X+060877Y+025482
X+060877Y+026482
X+060877Y+027482
X+060877Y+028482
X+066523Y+038446
X+067523Y+038446
X+068523Y+038446
X+069523Y+038446
X+012939Y+035171
X-003359Y+035171
X-003359Y+011943
X+012978Y+011943
X+001104Y-015325
X+001104Y-016325
X+016188Y+020836
X+017188Y+020836
X-008079Y+019283
X-008079Y+022425
X-007430Y+025386
X-005461Y+025386
X+015435Y+011902
X+015435Y+010902
X+015435Y+009902
X+026613Y+003633
X+025235Y+003633
X+028977Y+003431
X+028977Y+004431
X+033822Y-018694
X+033920Y-013365
X+026880Y-016075
X+028550Y-012425
X+053459Y+001484
X+053459Y+002484
X+053370Y-003455
X+053370Y-002455
X+052928Y-018408
X+049786Y-018408
X+053880Y+004904
X+053880Y+003904
X+057796Y-000426
X+055040Y-000426
X+033470Y-007667
X+032092Y-007667
X+056900Y-011215
X+057900Y-011215
X+056900Y-012215
X+057900Y-012215
X+056900Y-013215
X+057900Y-013215
X+034140Y-011965
X+034140Y-010965
X+031717Y-010387
X+032717Y-010387
X-015478Y+035115
X-031777Y+035115
X-031777Y+011887
X-015439Y+011887
X-027313Y-015381
X-027313Y-016381
X-012230Y+020780
X-011230Y+020780
X-036497Y+019227
X-036497Y+022369
X-035848Y+025330
X-033880Y+025330
X-012982Y+011846
X-012982Y+010846
X-012982Y+009846
X+068272Y-012299
X+068272Y-013299
X+064249Y-006488
X+063249Y-006488
X+062249Y-006488
X+061249Y-006488
X+060249Y-006488
X+035450Y+023986
X+031906Y+018081
X+031906Y+023986
X+035450Y+018081
X+041040Y+024808
X+041040Y+026776
X+025760Y+022686
X+026760Y+022686
X+027760Y+022686
X+028760Y+022686
X+029760Y+022686
X+039720Y+017036
X+039720Y+016036
X+039720Y+015036
X+039720Y+014036
X+021458Y+009841
X+022639Y+009841
X+023820Y+009841
X+026615Y+009841
X+027796Y+009841
X+028977Y+009841
X+037166Y+010967
X+037166Y+009785
X+041103Y+010967
X+041103Y+009785
X+045237Y+031179
X+044253Y+025667
X+044253Y+012282
X+045631Y+012282
X-065294Y+009176
X-065294Y+012318
X-041673Y+010633
X-039705Y+010633
X-049132Y+030119
X-050132Y+030119
X-049132Y+031119
X-050132Y+031119
X-049132Y+032119
X-050132Y+032119
X-064155Y+019741
X-063155Y+019741
X-062155Y+019741
X-061155Y+019741
X-061155Y+020741
X-062155Y+020741
X-063155Y+020741
X-064155Y+020741
X-062152Y-010006
X-042860Y-010006
X-042860Y+016765
X-062152Y+016765
X-063848Y+004245
X-064848Y+004245
X-042087Y-014400
X-041087Y-014400
X-038888Y+006965
X-042038Y+006965
T04
X-000222Y+030596
X-000222Y+029809
X-000222Y+029022
X-000222Y+028234
X-000222Y+027447
X-000222Y+026659
X-000222Y+025872
X-000222Y+025085
X-000222Y+024297
X-000222Y+023510
X+008439Y+023549
X+008439Y+024337
X+008439Y+025124
X+008439Y+025911
X+008439Y+026699
X+008439Y+027486
X+008439Y+028274
X+008439Y+029061
X+008439Y+029848
X+008439Y+030636
X-007163Y+014591
X-007163Y+012622
X+056773Y-005514
X+056773Y-003546
X+029620Y-002771
X+030014Y-001984
X+030408Y-002771
X+030801Y-001984
X+056794Y-009624
X+056794Y-007655
X-028640Y+030541
X-028640Y+029753
X-028640Y+028966
X-028640Y+028178
X-028640Y+027391
X-028640Y+026604
X-028640Y+025816
X-028640Y+025029
X-028640Y+024241
X-028640Y+023454
X-019978Y+023493
X-019978Y+024281
X-019978Y+025068
X-019978Y+025855
X-019978Y+026643
X-019978Y+027430
X-019978Y+028218
X-019978Y+029005
X-019978Y+029792
X-019978Y+030580
X-035581Y+014535
X-035581Y+012567
X+064745Y-012227
X+066713Y-012227
X+032250Y+008623
X+034219Y+008623
X-047761Y+037031
X-049730Y+037031
X-055187Y+037031
X-057155Y+037031
T05
X+003829Y+009658
X+003829Y+010158
X+004329Y+009658
X+004329Y+010158
X+004829Y+009658
X+004829Y+010158
X+005329Y+009658
X+005329Y+010158
X+005829Y+009658
X+005829Y+010158
X+049779Y-006526
X+050279Y-006526
X+049779Y-007026
X+050279Y-007026
X+049779Y-007526
X+050279Y-007526
X+049779Y-008026
X+050279Y-008026
X+049779Y-008526
X+050279Y-008526
X-024588Y+009602
X-024588Y+010102
X-024088Y+009602
X-024088Y+010102
X-023588Y+009602
X-023588Y+010102
X-023088Y+009602
X-023088Y+010102
X-022588Y+009602
X-022588Y+010102
X+060523Y-001495
X+061023Y-001495
X+060523Y-001995
X+061023Y-001995
X+060523Y-002495
X+061023Y-002495
X+060523Y-002995
X+061023Y-002995
X+060523Y-003495
X+061023Y-003495
X+037820Y+019089
X+038320Y+019089
X+037820Y+018589
X+038320Y+018589
X+037820Y+018089
X+038320Y+018089
X+037820Y+017589
X+038320Y+017589
X+037820Y+017089
X+038320Y+017089
X-041285Y+014611
X-041785Y+014611
X-041285Y+015111
X-041785Y+015111
X-041285Y+015611
X-041785Y+015611
X-041285Y+016111
X-041785Y+016111
X-041285Y+016611
X-041785Y+016611
T06
X+015238Y+003004
X+015238Y+008122
X+013270Y+008122
X+013270Y+003004
X+014254Y+005563
X+008939Y+003004
X+008939Y+008122
X+006970Y+008122
X+006970Y+003004
X+007955Y+005563
X+002640Y+003004
X+002640Y+008122
X+000671Y+008122
X+000671Y+003004
X+001655Y+005563
X-003659Y+003004
X-003659Y+008122
X-005627Y+008122
X-005627Y+003004
X-004643Y+005563
X+015238Y-004869
X+015238Y+000248
X+013270Y+000248
X+013270Y-004869
X+014254Y-002310
X+008939Y-004869
X+008939Y+000248
X+006970Y+000248
X+006970Y-004869
X+007955Y-002310
X+002640Y-004869
X+002640Y+000248
X+000671Y+000248
X+000671Y-004869
X+001655Y-002310
X-003659Y-004869
X-003659Y+000248
X-005627Y+000248
X-005627Y-004869
X-004643Y-002310
X+015238Y-012743
X+015238Y-007625
X+013270Y-007625
X+013270Y-012743
X+014254Y-010184
X+008939Y-012743
X+008939Y-007625
X+006970Y-007625
X+006970Y-012743
X+007955Y-010184
X+002640Y-012743
X+002640Y-007625
X+000671Y-007625
X+000671Y-012743
X+001655Y-010184
X-003659Y-012743
X-003659Y-007625
X-005627Y-007625
X-005627Y-012743
X-004643Y-010184
X+013977Y+022994
X+013900Y+033224
X+013900Y+030507
X-013179Y+002948
X-013179Y+008067
X-015147Y+008067
X-015147Y+002948
X-014163Y+005508
X-019478Y+002948
X-019478Y+008067
X-021447Y+008067
X-021447Y+002948
X-020462Y+005508
X-025777Y+002948
X-025777Y+008067
X-027746Y+008067
X-027746Y+002948
X-026762Y+005508
X-032077Y+002948
X-032077Y+008067
X-034045Y+008067
X-034045Y+002948
X-033061Y+005508
X-013179Y-004925
X-013179Y+000193
X-015147Y+000193
X-015147Y-004925
X-014163Y-002365
X-019478Y-004925
X-019478Y+000193
X-021447Y+000193
X-021447Y-004925
X-020462Y-002365
X-025777Y-004925
X-025777Y+000193
X-027746Y+000193
X-027746Y-004925
X-026762Y-002365
X-032077Y-004925
X-032077Y+000193
X-034045Y+000193
X-034045Y-004925
X-033061Y-002365
X-013179Y-012799
X-013179Y-007680
X-015147Y-007680
X-015147Y-012799
X-014163Y-010240
X-019478Y-012799
X-019478Y-007680
X-021447Y-007680
X-021447Y-012799
X-020462Y-010240
X-025777Y-012799
X-025777Y-007680
X-027746Y-007680
X-027746Y-012799
X-026762Y-010240
X-032077Y-012799
X-032077Y-007680
X-034045Y-007680
X-034045Y-012799
X-033061Y-010240
X-014440Y+022938
X-014517Y+033168
X-014517Y+030451
X+026810Y+026731
X+031534Y+026731
X+029172Y+025944
X+026810Y+031535
X+031534Y+031535
X+033360Y+026731
X+038084Y+026731
X+035722Y+025944
X+033360Y+031535
X+038084Y+031535
X+021068Y+037636
X+023038Y+037636
X+025008Y+037636
X+026978Y+037636
X+028938Y+037636
X+030908Y+037636
X+036841Y+037636
X+034871Y+037636
X+032901Y+037636
X+048977Y+037675
X+050947Y+037675
X-042779Y+021022
X-042779Y+028502
T07
X-007005Y+037453
X+016616Y+037453
X-007005Y-017664
X+016616Y-017664
X+056773Y+003864
X+056773Y-017710
X+021340Y+003864
X+021340Y-017710
X-035423Y+037397
X-011801Y+037397
X-035423Y-017720
X-011801Y-017720
X+022639Y+008266
X+027796Y+008266
X+037166Y+008211
X+041103Y+008211
X-065235Y+037832
X-065235Y-017285
X-039645Y-017285
X-039645Y+037832
T08
X+025077Y-013480
X+022203Y-013480
X+023620Y-015291
T09
X+021590Y+024996
X+021590Y+025981
X+021629Y+030114
X+021629Y+033107
X+024450Y+024996
X+024450Y+025981
X+024489Y+030114
X+024489Y+033107
X-056332Y+025392
X-048615Y+025392
T10
X+030292Y+017583
X+030292Y+018383
X+030292Y+019183
X-055132Y+024442
X-057573Y+024442
X-057573Y+026411
X-055132Y+026411
X-047415Y+024442
X-049856Y+024442
X-049856Y+026411
X-047415Y+026411
T11
X-041268Y-005554
X-041268Y-008703
X-041157Y+000009
X-041157Y-003140
T12
X-060203Y-018325
X-056266Y-017341
X-060203Y-017341
X-058235Y-015373
X-056266Y-018325
X-048550Y-018325
X-044612Y-017341
X-048550Y-017341
X-046581Y-015373
X-044612Y-018325
M30
