M48
INCH
T01C0.0150
T02C0.0910
T03C0.0320
T04C0.0400
T05C0.0300
%
T01
X+002760Y+012500
X+003267Y+015826
X+005010Y+016250
X+004921Y+014763
X+007755Y+016181
X+004876Y+005775
X+005196Y+006181
X+003887Y+016794
X+002283Y+020275
X+002448Y+019505
X+005905Y+014173
X+001361Y+005539
X+011771Y+018818
X+011771Y+017913
X+011771Y+016929
X+011771Y+016000
X+003298Y+006636
X+002215Y+006697
X+001259Y+007519
X+011732Y+005118
X+012052Y+001619
X+003188Y+015250
X+007207Y+010275
X+009131Y+010776
X+006714Y+012208
X+007362Y+011732
X+007260Y+013250
X+006574Y+007519
X+002834Y+008669
X+003086Y+009369
X+002637Y+004645
X+002039Y+005741
X+000504Y+014933
X+001102Y+018543
X+005260Y+014365
X+000797Y+008188
X+003718Y+018960
X+000840Y+013158
X+004330Y+019724
X+007244Y+008543
X+000291Y+019360
X+000340Y+014360
X+008510Y+005674
X+010984Y+002086
X+008099Y+009242
X+010920Y+003880
X+008622Y+009330
X+003070Y+010750
X+005855Y+008902
X+005045Y+013836
X+004011Y+014200
X+003994Y+002528
X+006374Y+002582
X+004950Y+005240
X+004342Y+005725
X+004450Y+002940
X+006670Y+005076
X+006020Y+004890
X+008026Y+005310
X+009907Y+007694
X+008773Y+016527
X+006171Y+016921
X+009488Y+008188
X+008228Y+004948
X+011360Y+018398
X+009206Y+017198
X+007010Y+018250
X+011970Y+006367
X+011675Y+010507
X+011740Y+015340
T02
X+012687Y+020669
X+000994Y+020669
X+000994Y+000984
X+012687Y+000984
T03
X+001968Y+017677
X+001968Y+016889
X+001968Y+016102
X+001968Y+015314
X+001968Y+014527
X+001968Y+013740
X+001968Y+012952
X+001968Y+012165
X+001968Y+011377
X+001968Y+010590
X+001968Y+009803
X+001968Y+009015
X+001968Y+008228
X+003543Y+007362
X+004338Y+007362
X+005118Y+007362
X+005905Y+007362
X+010629Y+008267
X+010629Y+009055
X+010629Y+009842
X+010629Y+010629
X+010629Y+011417
X+010629Y+012204
X+010629Y+012992
X+010629Y+013779
X+010629Y+014566
X+010629Y+015354
X+010629Y+016141
X+010629Y+016929
X+010629Y+017716
X+010629Y+018503
X+010629Y+019291
X+010629Y+020078
T04
X+004118Y+010669
X+005118Y+010669
X+004118Y+009669
X+005118Y+009669
X+004118Y+008669
X+005118Y+008669
X+012677Y+013188
X+012677Y+014188
X+012677Y+010196
X+012677Y+011196
X+012677Y+007188
X+012677Y+008188
X+012677Y+004118
X+012677Y+005118
X+010000Y+002362
X+010000Y+001362
X+010000Y+005590
X+010000Y+004590
X+006191Y+017942
X+005191Y+017942
X+006191Y+018942
X+005191Y+018942
X+006191Y+019942
X+005191Y+019942
X+007795Y+019937
X+008795Y+019937
X+007795Y+018937
X+008795Y+018937
X+007795Y+017937
X+008795Y+017937
X+002755Y+002417
X+002755Y+001417
T05
X+008937Y+014133
X+008937Y+012133
X+005460Y+002781
X+007232Y+002781
M30
