M48
INCH
T01C0.0150
T02C0.1259
T03C0.0400
T04C0.0450
T05C0.0300
T06C0.0590
T07C0.0320
T08C0.0910
T09C0.0700
%
T01
X-029337Y+042138
X-033337Y+042388
X-031087Y+043388
X-033087Y+043388
X-041587Y+040888
X-044337Y+027888
X-033087Y+035888
X-032087Y+044388
X-033587Y+044638
X-021587Y+040138
X-019087Y+036638
X-043837Y+039138
X-037587Y+038888
X-044337Y+029388
X-035516Y+045487
X-042583Y+034979
X-038428Y+032357
X-040475Y+036963
X-043633Y+031598
X-037703Y+037669
X-051087Y+034638
X-053837Y+037638
X-028034Y+026396
X-029040Y+033674
X-041459Y+027208
X-041853Y+028616
X-034624Y+037128
X-034837Y+044888
X-022365Y+041884
X-018195Y+038488
X-030200Y+037435
X-021837Y+038262
X-023295Y+039561
X-030587Y+041138
X-026337Y+041138
X-026589Y+038519
X-029397Y+038191
X-036622Y+041271
X-041613Y+041727
X-044530Y+041891
X-036837Y+039388
X-037967Y+041518
X-041066Y+041648
X-044570Y+041388
X-030905Y+029144
X-023389Y+027829
X-037202Y+033172
X-043625Y+033498
X-044337Y+029888
X-045573Y+029413
X-052877Y+024876
X-052938Y+023534
X-028507Y+040388
X-028861Y+038971
X-020741Y+031256
X-041129Y+045427
X-039325Y+039491
X-051087Y+041888
X-035087Y+039388
X-050587Y+041388
X-039325Y+045637
X-039244Y+044086
X-028837Y+044888
X-036837Y+044325
X-036802Y+045227
X-049087Y+041888
X-051837Y+037388
X-046079Y+038639
X-044337Y+038638
X-040587Y+039638
X-030837Y+041638
X-025908Y+041638
X-033585Y+027829
X-026087Y+029138
X-034963Y+028892
X-044337Y+036638
X-036337Y+037138
X-046077Y+040610
X-042040Y+027746
X-054852Y+025163
X-052365Y+026845
X-049587Y+027888
X-038707Y+031338
X-034337Y+037888
X-033587Y+045138
X-044421Y+034767
X-034271Y+034445
X-043412Y+028744
X-040554Y+029128
X-044384Y+033971
X-032945Y+033113
X-039199Y+037320
X-041428Y+040182
X-045627Y+042620
X-037587Y+039388
X-030623Y+038678
X-032509Y+039544
X-033667Y+033348
X-036864Y+032055
X-040592Y+026637
X-042561Y+026626
X-036529Y+031566
X-040585Y+026211
X-042236Y+026295
X-036189Y+032150
X-044337Y+032388
X-034587Y+031138
X-044337Y+033065
X-036427Y+033208
X-044337Y+035388
X-036337Y+035888
X-037435Y+035193
X-039491Y+035624
X-043587Y+037138
X-043587Y+034888
X-040487Y+034601
X-044199Y+037638
X-036337Y+037638
X-029939Y+045118
X-040790Y+045113
X-043940Y+042377
X-040893Y+042415
X-034530Y+029390
X-043837Y+029388
X-045819Y+024560
X-032087Y+028888
X-033313Y+031972
X-027932Y+031434
X-029025Y+031404
X-031161Y+032475
X-035593Y+032672
X-033809Y+032770
X-046288Y+043629
X-050101Y+026262
X-035837Y+035888
X-042337Y+035888
X-035989Y+036799
X-037464Y+036725
X-031198Y+038904
X-050087Y+043638
X-036337Y+042638
X-042587Y+040888
X-048456Y+045103
X-049587Y+041388
X-053587Y+038388
X-029337Y+025888
X-033087Y+025888
X-032734Y+033478
X-036914Y+034988
X-044587Y+042638
X-041448Y+042637
X-042337Y+039138
X-040337Y+038388
X-036837Y+040888
X-037404Y+042790
X-051587Y+042388
X-051587Y+045138
X-052337Y+045138
X-038084Y+045215
X-041459Y+045782
X-033296Y+038836
X-044613Y+045070
X-040339Y+042250
X-052837Y+045138
X-052956Y+036057
X-052041Y+036041
X-050578Y+034824
X-054749Y+038064
X-052098Y+034376
X-032589Y+028466
X-033599Y+038135
X-033589Y+039118
X-049168Y+030563
X-053087Y+026638
X-051361Y+031238
X-051990Y+023430
X-031735Y+037730
X-050432Y+031290
X-047362Y+023315
X-034530Y+023774
X-033051Y+032595
X-031235Y+032886
X-030177Y+033685
X-030428Y+040025
X-046307Y+023102
X-029390Y+017528
X-033390Y+017778
X-031140Y+018778
X-033140Y+018778
X-041640Y+016278
X-044390Y+003278
X-033140Y+011278
X-032140Y+019778
X-033640Y+020028
X-021640Y+015528
X-019140Y+012028
X-043890Y+014528
X-037640Y+014278
X-044390Y+004778
X-035569Y+020877
X-042635Y+010368
X-038481Y+007746
X-040528Y+012353
X-043686Y+006988
X-037755Y+013058
X-051140Y+010028
X-053890Y+013028
X-028086Y+001785
X-029093Y+009063
X-041512Y+002597
X-041906Y+004006
X-034677Y+012518
X-034890Y+020278
X-022418Y+017274
X-018247Y+013878
X-030252Y+012825
X-021890Y+013652
X-023347Y+014951
X-030640Y+016528
X-026390Y+016528
X-026642Y+013908
X-029449Y+013581
X-036675Y+016661
X-041666Y+017116
X-044583Y+017281
X-036890Y+014778
X-038020Y+016908
X-041118Y+017038
X-044622Y+016778
X-030958Y+004534
X-023441Y+003219
X-037254Y+008562
X-043677Y+008888
X-044390Y+005278
X-045625Y+004802
X-052929Y+000266
X-052990Y-001075
X-028559Y+015778
X-028914Y+014360
X-020793Y+006646
X-041182Y+020817
X-039378Y+014881
X-051140Y+017278
X-035140Y+014778
X-050640Y+016778
X-039378Y+021026
X-039297Y+019476
X-028890Y+020278
X-036890Y+019715
X-036854Y+020616
X-049140Y+017278
X-051890Y+012778
X-046131Y+014029
X-044390Y+014028
X-040640Y+015028
X-030890Y+017028
X-025961Y+017028
X-033638Y+003219
X-026140Y+004528
X-035016Y+004282
X-044390Y+012028
X-036390Y+012528
X-046129Y+016000
X-042093Y+003136
X-054905Y+000553
X-052418Y+002234
X-049640Y+003278
X-038760Y+006728
X-034390Y+013278
X-033640Y+020528
X-044474Y+010156
X-034324Y+009835
X-043465Y+004133
X-040606Y+004518
X-044437Y+009361
X-032998Y+008503
X-039252Y+012710
X-041481Y+015571
X-045680Y+018010
X-037640Y+014778
X-030675Y+014068
X-032562Y+014934
X-033720Y+008738
X-036916Y+007444
X-040645Y+002026
X-042614Y+002015
X-036581Y+006956
X-040638Y+001601
X-042289Y+001685
X-036242Y+007540
X-044390Y+007778
X-034640Y+006528
X-044390Y+008455
X-036480Y+008598
X-044390Y+010778
X-036390Y+011278
X-037487Y+010583
X-039543Y+011014
X-043640Y+012528
X-043640Y+010278
X-040540Y+009990
X-044252Y+013028
X-036390Y+013028
X-029992Y+020508
X-040843Y+020502
X-043992Y+017767
X-040945Y+017804
X-034582Y+004780
X-043890Y+004778
X-045872Y-000049
X-032140Y+004278
X-033366Y+007362
X-027985Y+006823
X-029077Y+006793
X-031213Y+007864
X-035646Y+008061
X-033862Y+008160
X-046341Y+019019
X-050154Y+001652
X-035890Y+011278
X-042390Y+011278
X-036042Y+012188
X-037517Y+012114
X-031250Y+014294
X-050140Y+019028
X-036390Y+018028
X-042640Y+016278
X-048509Y+020493
X-049640Y+016778
X-053640Y+013778
X-029390Y+001278
X-033140Y+001278
X-032787Y+008868
X-036967Y+010378
X-044640Y+018028
X-041501Y+018027
X-042390Y+014528
X-040390Y+013778
X-036890Y+016278
X-037457Y+018179
X-051640Y+017778
X-051640Y+020528
X-052390Y+020528
X-038136Y+020605
X-041512Y+021171
X-033348Y+014226
X-044665Y+020460
X-040392Y+017640
X-052890Y+020528
X-053008Y+011447
X-052094Y+011431
X-050630Y+010214
X-054802Y+013454
X-052150Y+009766
X-032642Y+003856
X-033652Y+013525
X-033641Y+014508
X-049220Y+005952
X-053140Y+002028
X-051413Y+006628
X-052043Y-001180
X-031788Y+013120
X-050484Y+006679
X-047415Y-001294
X-034583Y-000835
X-033104Y+007984
X-031288Y+008276
X-030229Y+009075
X-030480Y+015414
X-046360Y-001507
X+010247Y+042141
X+006247Y+042391
X+008497Y+043391
X+006497Y+043391
X-002002Y+040891
X-004752Y+027891
X+006497Y+035891
X+007497Y+044391
X+005997Y+044641
X+017997Y+040141
X+020497Y+036641
X-004252Y+039141
X+001997Y+038891
X-004752Y+029391
X+004069Y+045490
X-002997Y+034981
X+001157Y+032359
X-000890Y+036966
X-004048Y+031601
X+001882Y+037671
X-011502Y+034641
X-014252Y+037641
X+011551Y+026398
X+010545Y+033676
X-001874Y+027210
X-002268Y+028619
X+004960Y+037131
X+004747Y+044891
X+017220Y+041887
X+021390Y+038491
X+009385Y+037438
X+017747Y+038265
X+016290Y+039564
X+008997Y+041141
X+013247Y+041141
X+012995Y+038522
X+010188Y+038194
X+002963Y+041274
X-002027Y+041729
X-004945Y+041894
X+002747Y+039391
X+001617Y+041521
X-001480Y+041651
X-004984Y+041391
X+008680Y+029147
X+016196Y+027832
X+002383Y+033175
X-004039Y+033501
X-004752Y+029891
X-005987Y+029415
X-013291Y+024879
X-013352Y+023537
X+011078Y+040391
X+010724Y+038974
X+018844Y+031259
X-001544Y+045430
X+000259Y+039494
X-011502Y+041891
X+004497Y+039391
X-011002Y+041391
X+000259Y+045639
X+000340Y+044089
X+010747Y+044891
X+002747Y+044328
X+002783Y+045230
X-009502Y+041891
X-012252Y+037391
X-006493Y+038642
X-004752Y+038641
X-001002Y+039641
X+008747Y+041641
X+013676Y+041641
X+005999Y+027832
X+013497Y+029141
X+004621Y+028895
X-004752Y+036641
X+003247Y+037141
X-006491Y+040613
X-002455Y+027749
X-015266Y+025166
X-012779Y+026848
X-010002Y+027891
X+000877Y+031341
X+005247Y+037891
X+005997Y+045141
X-004836Y+034770
X+005313Y+034448
X-003827Y+028747
X-000968Y+029131
X-004799Y+033974
X+006639Y+033116
X+000385Y+037323
X-001843Y+040185
X-006042Y+042623
X+001997Y+039391
X+008962Y+038681
X+007076Y+039547
X+005917Y+033351
X+002721Y+032058
X-001007Y+026640
X-002976Y+026629
X+003056Y+031569
X-001000Y+026214
X-002651Y+026298
X+003395Y+032153
X-004752Y+032391
X+004997Y+031141
X-004752Y+033068
X+003157Y+033211
X-004752Y+035391
X+003247Y+035891
X+002150Y+035196
X+000094Y+035627
X-004002Y+037141
X-004002Y+034891
X-000902Y+034603
X-004614Y+037641
X+003247Y+037641
X+009645Y+045121
X-001205Y+045115
X-004354Y+042380
X-001307Y+042418
X+005055Y+029393
X-004252Y+029391
X-006234Y+024563
X+007497Y+028891
X+006271Y+031975
X+011652Y+031436
X+010560Y+031407
X+008424Y+032478
X+003991Y+032674
X+005775Y+032773
X-006702Y+043632
X-010516Y+026265
X+003747Y+035891
X-002752Y+035891
X+003595Y+036801
X+002120Y+036727
X+008387Y+038907
X-010502Y+043641
X+003247Y+042641
X-003002Y+040891
X-008871Y+045106
X-010002Y+041391
X-014002Y+038391
X+010247Y+025891
X+006497Y+025891
X+006851Y+033481
X+002671Y+034991
X-005002Y+042641
X-001863Y+042640
X-002752Y+039141
X-000752Y+038391
X+002747Y+040891
X+002180Y+042792
X-012002Y+042391
X-012002Y+045141
X-012752Y+045141
X+001501Y+045218
X-001874Y+045785
X+006289Y+038839
X-005027Y+045073
X-000754Y+042253
X-013252Y+045141
X-013370Y+036060
X-012456Y+036044
X-010992Y+034827
X-015164Y+038067
X-012512Y+034379
X+006995Y+028469
X+005986Y+038138
X+005996Y+039121
X-009582Y+030565
X-013502Y+026641
X-011775Y+031241
X-012404Y+023432
X+007850Y+037733
X-010846Y+031293
X-007777Y+023318
X+005054Y+023777
X+006533Y+032597
X+008350Y+032889
X+009408Y+033688
X+009157Y+040027
X-006721Y+023105
X-049180Y-012003
X-048672Y-008677
X-046930Y-008253
X-047019Y-009740
X-044184Y-008322
X-047064Y-018728
X-045180Y-007253
X-046743Y-018322
X-051649Y-005143
X-049657Y-004228
X-049491Y-004998
X-047598Y-018778
X-046783Y-019425
X-046035Y-010330
X-050578Y-018964
X-040168Y-005685
X-040168Y-006590
X-040168Y-007574
X-040168Y-008503
X-048642Y-017867
X-049725Y-017806
X-050680Y-016984
X-045759Y-022023
X-040208Y-019385
X-040168Y-018126
X-039887Y-022884
X-048751Y-009253
X-042809Y-013727
X-045226Y-012295
X-044578Y-012771
X-044680Y-011253
X-045365Y-016984
X-049105Y-015834
X-048853Y-015134
X-049302Y-019858
X-049900Y-018762
X-051668Y-010190
X-051436Y-009570
X-050838Y-005960
X-046680Y-010138
X-051143Y-016315
X-051100Y-011345
X-044696Y-015960
X-047609Y-021472
X-047945Y-021975
X-044733Y-014228
X-043712Y-019555
X-040579Y-006105
X-043141Y-007305
X-044930Y-006253
X-040956Y-022417
X-043840Y-015261
X-041010Y-020613
X-043318Y-015173
X-043498Y-018734
X-042452Y-016315
X-044378Y-019528
X-042033Y-016809
X-043166Y-007976
X-047609Y-004779
X-048330Y-005563
X-048052Y-007709
X-048869Y-013753
X-046084Y-015601
X-046894Y-010667
X-047928Y-010283
X-049192Y-034623
X-048685Y-031297
X-046942Y-030873
X-047031Y-032360
X-044196Y-030942
X-047076Y-041347
X-045192Y-029873
X-046755Y-040942
X-051661Y-027763
X-049669Y-026848
X-049504Y-027618
X-047610Y-041398
X-046795Y-042045
X-046047Y-032950
X-050591Y-041583
X-040181Y-028304
X-040181Y-029210
X-040181Y-030194
X-040181Y-031123
X-048654Y-040487
X-049737Y-040425
X-050692Y-039604
X-045771Y-044643
X-040220Y-042005
X-040181Y-040745
X-039899Y-045504
X-048763Y-031873
X-042821Y-036346
X-045238Y-034915
X-044590Y-035391
X-044692Y-033873
X-045377Y-039604
X-049118Y-038454
X-048866Y-037754
X-049314Y-042478
X-049912Y-041382
X-051680Y-032810
X-051448Y-032190
X-050850Y-028580
X-046692Y-032758
X-051155Y-038934
X-051112Y-033965
X-044708Y-038580
X-047622Y-044092
X-047957Y-044595
X-044745Y-036848
X-043724Y-042174
X-040591Y-028725
X-043153Y-029925
X-044942Y-028873
X-040968Y-045037
X-043852Y-037881
X-041022Y-043233
X-043330Y-037793
X-043510Y-041354
X-042464Y-038934
X-044390Y-042148
X-042045Y-039428
X-043179Y-030596
X-047622Y-027399
X-048342Y-028183
X-048065Y-030328
X-048881Y-036373
X-046096Y-038221
X-046906Y-033287
X-047940Y-032903
X-027708Y-012017
X-027200Y-008690
X-025458Y-008267
X-025546Y-009753
X-022712Y-008336
X-025591Y-018741
X-023708Y-007267
X-025271Y-018336
X-030176Y-005156
X-028184Y-004241
X-028019Y-005012
X-026126Y-018792
X-025310Y-019438
X-024562Y-010344
X-029106Y-018977
X-018696Y-005698
X-018696Y-006604
X-018696Y-007588
X-018696Y-008517
X-027169Y-017880
X-028253Y-017819
X-029208Y-016997
X-024287Y-022037
X-018735Y-019399
X-018696Y-018139
X-018415Y-022897
X-027279Y-009267
X-021336Y-013740
X-023754Y-012309
X-023105Y-012785
X-023208Y-011267
X-023893Y-016997
X-027633Y-015848
X-027381Y-015147
X-027830Y-019871
X-028428Y-018776
X-030196Y-010204
X-029963Y-009584
X-029365Y-005974
X-025207Y-010152
X-029670Y-016328
X-029627Y-011359
X-023224Y-015974
X-026137Y-021485
X-026473Y-021988
X-023261Y-014241
X-022239Y-019568
X-019107Y-006119
X-021668Y-007319
X-023458Y-006267
X-019483Y-022430
X-022368Y-015275
X-019538Y-020627
X-021846Y-015186
X-022025Y-018748
X-020980Y-016328
X-022906Y-019542
X-020560Y-016822
X-021694Y-007990
X-026137Y-004793
X-026858Y-005577
X-026580Y-007722
X-027397Y-013767
X-024612Y-015615
X-025422Y-010681
X-026456Y-010297
X-027726Y-034639
X-027218Y-031312
X-025476Y-030889
X-025565Y-032375
X-022730Y-030958
X-025610Y-041363
X-023726Y-029889
X-025289Y-040958
X-030195Y-027779
X-028203Y-026864
X-028038Y-027634
X-026144Y-041414
X-025329Y-042060
X-024581Y-032966
X-029124Y-041599
X-018715Y-028320
X-018715Y-029226
X-018715Y-030210
X-018715Y-031139
X-027188Y-040503
X-028271Y-040441
X-029226Y-039619
X-024305Y-044659
X-018754Y-042021
X-018715Y-040761
X-018433Y-045519
X-027297Y-031889
X-021355Y-036362
X-023772Y-034931
X-023124Y-035407
X-023226Y-033889
X-023911Y-039619
X-027652Y-038470
X-027400Y-037769
X-027848Y-042493
X-028446Y-041398
X-030214Y-032826
X-029982Y-032206
X-029384Y-028596
X-025226Y-032774
X-029689Y-038950
X-029646Y-033981
X-023242Y-038596
X-026155Y-044108
X-026491Y-044610
X-023279Y-036864
X-022258Y-042190
X-019125Y-028741
X-021687Y-029941
X-023476Y-028889
X-019502Y-045052
X-022386Y-037897
X-019556Y-043249
X-021864Y-037808
X-022044Y-041370
X-020998Y-038950
X-022924Y-042164
X-020579Y-039444
X-021712Y-030612
X-026155Y-027415
X-026876Y-028199
X-026598Y-030344
X-027415Y-036389
X-024630Y-038237
X-025440Y-033303
X-026474Y-032919
X-009606Y-011996
X-009098Y-008669
X-007356Y-008246
X-007444Y-009732
X-004610Y-008315
X-007489Y-018720
X-005606Y-007246
X-007169Y-018315
X-008478Y-007701
X-010082Y-004220
X-009917Y-004991
X-008023Y-018771
X-007208Y-019417
X-006460Y-010323
X-011004Y-018956
X-000594Y-005677
X-000594Y-006582
X-000594Y-007567
X-000594Y-008496
X-009067Y-017859
X-010150Y-017798
X-011106Y-016976
X-006184Y-022016
X-000633Y-019378
X-000594Y-018118
X-000313Y-022876
X-009177Y-009246
X-002877Y-016307
X-005158Y-014220
X-003234Y-013719
X-005651Y-012288
X-005003Y-012764
X-005106Y-011246
X-005791Y-016976
X-009531Y-015827
X-009279Y-015126
X-009728Y-019850
X-010326Y-018754
X-011861Y-009563
X-011263Y-005953
X-007105Y-010131
X-011568Y-016307
X-008647Y-005536
X-011525Y-011338
X-008035Y-004771
X-005121Y-015953
X-012074Y-005135
X-012026Y-010136
X-003855Y-018821
X-004137Y-019547
X-001005Y-006098
X-003566Y-007298
X-005356Y-006246
X-001381Y-022409
X-004266Y-015254
X-001446Y-020616
X-003743Y-015165
X-004803Y-019521
X-002458Y-016801
X-003592Y-007969
X-009295Y-013746
X-006510Y-015594
X-007320Y-010660
X-008354Y-010296
X-008371Y-021967
X-007916Y-021556
X-009616Y-034649
X-009108Y-031322
X-007366Y-030899
X-007455Y-032385
X-004620Y-030968
X-007499Y-041373
X-005616Y-029899
X-007179Y-040968
X-008488Y-030354
X-010092Y-026873
X-009927Y-027644
X-008034Y-041424
X-007218Y-042070
X-006470Y-032976
X-011014Y-041609
X-000604Y-028330
X-000604Y-029236
X-000604Y-030220
X-000604Y-031149
X-009078Y-040512
X-010161Y-040451
X-011116Y-039629
X-006195Y-044669
X-000644Y-042031
X-000604Y-040771
X-000323Y-045529
X-009187Y-031899
X-002888Y-038960
X-005169Y-036873
X-003245Y-036372
X-005662Y-034941
X-005014Y-035417
X-005116Y-033899
X-005801Y-039629
X-009541Y-038480
X-009289Y-037779
X-009738Y-042503
X-010336Y-041408
X-011872Y-032216
X-011274Y-028606
X-007115Y-032784
X-011578Y-038960
X-008657Y-028189
X-011536Y-033991
X-008045Y-027425
X-005132Y-038606
X-012085Y-027788
X-012036Y-032789
X-003865Y-041474
X-004148Y-042200
X-001015Y-028751
X-003577Y-029951
X-005366Y-028899
X-001392Y-045062
X-004276Y-037907
X-001456Y-043269
X-003754Y-037818
X-004814Y-042174
X-002468Y-039454
X-003602Y-030622
X-009305Y-036399
X-006520Y-038247
X-007330Y-033313
X-008364Y-032949
X-008381Y-044620
X-007926Y-044209
X+005073Y-012014
X+005581Y-008688
X+007323Y-008264
X+007235Y-009751
X+010069Y-008333
X+007190Y-018739
X+009073Y-007264
X+007510Y-018333
X+006201Y-007720
X+004597Y-004239
X+004762Y-005009
X+006655Y-018789
X+007471Y-019436
X+008219Y-010341
X+003675Y-018975
X+014085Y-005695
X+014085Y-006601
X+014085Y-007585
X+014085Y-008514
X+005612Y-017878
X+004528Y-017816
X+003573Y-016995
X+008494Y-022034
X+014046Y-019396
X+014085Y-018136
X+014366Y-022895
X+005502Y-009264
X+011802Y-016325
X+009521Y-014239
X+011445Y-013737
X+009027Y-012306
X+009676Y-012782
X+009573Y-011264
X+008888Y-016995
X+005148Y-015845
X+005400Y-015145
X+004951Y-019869
X+004353Y-018773
X+002818Y-009581
X+003416Y-005971
X+007574Y-010149
X+003111Y-016325
X+006032Y-005554
X+003154Y-011356
X+006644Y-004790
X+009557Y-015971
X+002605Y-005154
X+002653Y-010154
X+010824Y-018840
X+010542Y-019565
X+013674Y-006116
X+011113Y-007316
X+009323Y-006264
X+013298Y-022428
X+010413Y-015272
X+013233Y-020634
X+010935Y-015184
X+009875Y-019539
X+012221Y-016820
X+011087Y-007987
X+005384Y-013764
X+008169Y-015612
X+007359Y-010678
X+006325Y-010314
X+006308Y-021986
X+006763Y-021574
X+005096Y-034622
X+005604Y-031295
X+007346Y-030872
X+007257Y-032358
X+010092Y-030941
X+007212Y-041346
X+009096Y-029872
X+007533Y-040941
X+006224Y-030327
X+004619Y-026846
X+004785Y-027617
X+006678Y-041397
X+007493Y-042043
X+008241Y-032949
X+003698Y-041582
X+014108Y-028303
X+014108Y-029209
X+014108Y-030193
X+014108Y-031122
X+005634Y-040485
X+004551Y-040424
X+003596Y-039602
X+008517Y-044642
X+014068Y-042004
X+014108Y-040744
X+014389Y-045502
X+005525Y-031872
X+011824Y-038933
X+009543Y-036846
X+011467Y-036345
X+009050Y-034914
X+009698Y-035390
X+009596Y-033872
X+008911Y-039602
X+005171Y-038453
X+005423Y-037752
X+004974Y-042476
X+004376Y-041381
X+002840Y-032189
X+003438Y-028579
X+007596Y-032757
X+003133Y-038933
X+006055Y-028162
X+003176Y-033964
X+006667Y-027398
X+009580Y-038579
X+002627Y-027761
X+002676Y-032762
X+010847Y-041447
X+010564Y-042173
X+013697Y-028724
X+011135Y-029924
X+009346Y-028872
X+013320Y-045035
X+010436Y-037880
X+013256Y-043242
X+010958Y-037791
X+009898Y-042147
X+012243Y-039427
X+011110Y-030595
X+005407Y-036372
X+008192Y-038220
X+007382Y-033286
X+006348Y-032922
X+006331Y-044593
X+006786Y-044182
X+019763Y-021748
X+020320Y-012411
X+020180Y-011991
X+020263Y-010831
X+021850Y-014451
X+020371Y-013428
X+018397Y-014814
X+022060Y-010661
X+019560Y-022101
X+021660Y-009918
X+021560Y-015201
X+018520Y-016101
X+019940Y-010431
X+022200Y-011041
X+021230Y-014741
X+019700Y-014201
X+019411Y-011336
X+020120Y-018581
X+022260Y-013391
X+021287Y-019179
X+020600Y-015181
X+020975Y-018326
X+020600Y-022451
X+020360Y-018111
X+020350Y-013951
X+019620Y-018481
X+019580Y-022101
X+018910Y-016171
X+019725Y-016989
X+020819Y-015749
X+021210Y-015811
X+022010Y-018470
X+021500Y-018471
X+022930Y-014001
X+022860Y-010621
X+020724Y-009921
X+020863Y-013954
X+021850Y-014951
X+021760Y-018151
X+022010Y-011861
X+020860Y-013561
X+020350Y-014641
X+020600Y-018451
X+020600Y-019001
X+021943Y-019037
X+022760Y-020591
X+019850Y-018991
X+019550Y-015281
X+018760Y-019205
X+018779Y-018130
X+019470Y-016671
X+019777Y-039736
X+020333Y-030399
X+020193Y-029979
X+020277Y-028820
X+021863Y-032439
X+020385Y-031417
X+018411Y-032803
X+022073Y-028649
X+019573Y-040089
X+021673Y-027907
X+021573Y-033189
X+018534Y-034090
X+019953Y-028420
X+022213Y-029029
X+021243Y-032729
X+019713Y-032189
X+019425Y-029324
X+020133Y-036569
X+022273Y-031379
X+021301Y-037168
X+020613Y-033169
X+020988Y-036314
X+020613Y-040439
X+020373Y-036099
X+020363Y-031939
X+019633Y-036469
X+019593Y-040089
X+018923Y-034159
X+019739Y-034978
X+020833Y-033737
X+021223Y-033799
X+022023Y-036459
X+021513Y-036459
X+022943Y-031989
X+022873Y-028609
X+020738Y-027910
X+020877Y-031942
X+021863Y-032939
X+021773Y-036139
X+022023Y-029849
X+020873Y-031549
X+020363Y-032629
X+020613Y-036439
X+020613Y-036989
X+021957Y-037026
X+022773Y-038579
X+019863Y-036979
X+019563Y-033269
X+018773Y-037193
X+018793Y-036119
X+019483Y-034659
X+027940Y-021732
X+028496Y-012394
X+028356Y-011974
X+028440Y-010815
X+030026Y-014434
X+028548Y-013412
X+026574Y-014798
X+030236Y-010644
X+027736Y-022084
X+029836Y-009902
X+029736Y-015184
X+026697Y-016085
X+028116Y-010415
X+030376Y-011024
X+029406Y-014724
X+027876Y-014184
X+027588Y-011320
X+028296Y-018564
X+030436Y-013374
X+029464Y-019163
X+028776Y-015164
X+029151Y-018309
X+028776Y-022434
X+028536Y-018094
X+028526Y-013934
X+027796Y-018464
X+027756Y-022084
X+027086Y-016154
X+027902Y-016973
X+028996Y-015733
X+029386Y-015794
X+030186Y-018454
X+029676Y-018454
X+031106Y-013984
X+031036Y-010604
X+028901Y-009905
X+029040Y-013938
X+030026Y-014934
X+029936Y-018134
X+030186Y-011844
X+029036Y-013544
X+028526Y-014624
X+028776Y-018434
X+028776Y-018984
X+030120Y-019021
X+030936Y-020574
X+028026Y-018974
X+027726Y-015264
X+026936Y-019189
X+026956Y-018114
X+027646Y-016654
X+027926Y-039736
X+028483Y-030399
X+028343Y-029979
X+028427Y-028820
X+030013Y-032439
X+028534Y-031417
X+026560Y-032803
X+030223Y-028649
X+027723Y-040089
X+029823Y-027907
X+029723Y-033189
X+026683Y-034090
X+028103Y-028420
X+030363Y-029029
X+029393Y-032729
X+027863Y-032189
X+027575Y-029324
X+028283Y-036569
X+030423Y-031379
X+029451Y-037168
X+028763Y-033169
X+029138Y-036314
X+028763Y-040439
X+028523Y-036099
X+028513Y-031939
X+027783Y-036469
X+027743Y-040089
X+027073Y-034159
X+027888Y-034978
X+028983Y-033737
X+029373Y-033799
X+030173Y-036459
X+029663Y-036459
X+031093Y-031989
X+031023Y-028609
X+028887Y-027910
X+029026Y-031942
X+030013Y-032939
X+029923Y-036139
X+030173Y-029849
X+029023Y-031549
X+028513Y-032629
X+028763Y-036439
X+028763Y-036989
X+030107Y-037026
X+030923Y-038579
X+028013Y-036979
X+027713Y-033269
X+026923Y-037193
X+026943Y-036119
X+027633Y-034659
X+026599Y+025480
X+027155Y+034817
X+027015Y+035237
X+027099Y+036396
X+028685Y+032777
X+027207Y+033799
X+025233Y+032413
X+028895Y+036567
X+026395Y+025127
X+028495Y+037309
X+028395Y+032027
X+025356Y+031126
X+026776Y+036796
X+029035Y+036187
X+028065Y+032487
X+026535Y+033027
X+026247Y+035892
X+026955Y+028647
X+029095Y+033837
X+028123Y+028048
X+027435Y+032047
X+027810Y+028902
X+027435Y+024777
X+027195Y+029117
X+027185Y+033277
X+026455Y+028747
X+026415Y+025127
X+025745Y+031057
X+026561Y+030238
X+027655Y+031478
X+028045Y+031417
X+028845Y+028757
X+028335Y+028757
X+029765Y+033227
X+029695Y+036607
X+027560Y+037306
X+027699Y+033274
X+028685Y+032277
X+028595Y+029077
X+028845Y+035367
X+027695Y+033667
X+027185Y+032587
X+027435Y+028777
X+027435Y+028227
X+028779Y+028190
X+029595Y+026637
X+026685Y+028237
X+026385Y+031947
X+025595Y+028022
X+025615Y+029097
X+026305Y+030557
T02
X-019255Y+044758
X-043467Y+024916
X-021381Y+024916
X-043467Y+044207
X-050357Y+044758
X-050357Y+024286
X-021381Y+044207
X-019255Y+024286
X-019307Y+020148
X-043520Y+000305
X-021433Y+000305
X-043520Y+019597
X-050410Y+020148
X-050410Y-000324
X-021433Y+019597
X-019307Y-000324
X+020330Y+044761
X-003882Y+024918
X+018204Y+024918
X-003882Y+044210
X-010772Y+044761
X-010772Y+024289
X+018204Y+044210
X+020330Y+024289
T03
X-047995Y+044050
X-047995Y+043050
X-047995Y+042050
X-047995Y+041050
X-047995Y+040050
X-047995Y+039050
X-047995Y+038050
X-047995Y+037050
X-047995Y+036050
X-047995Y+035050
X-047995Y+034050
X-047995Y+033050
X-047995Y+032050
X-047995Y+031050
X-047995Y+030050
X-047995Y+029050
X-047995Y+028050
X-047995Y+027050
X-047995Y+026050
X-047995Y+025050
X-046995Y+044050
X-046995Y+043050
X-046995Y+042050
X-046995Y+041050
X-046995Y+040050
X-046995Y+039050
X-046995Y+038050
X-046995Y+037050
X-046995Y+036050
X-046995Y+035050
X-046995Y+034050
X-046995Y+033050
X-046995Y+032050
X-046995Y+031050
X-046995Y+030050
X-046995Y+029050
X-046995Y+028050
X-046995Y+027050
X-046995Y+026050
X-046995Y+025050
X-040830Y+032357
X-041830Y+032357
X-040830Y+031357
X-041830Y+031357
X-040830Y+030357
X-041830Y+030357
X-020436Y+038931
X-021436Y+038931
X-018274Y+041746
X-018274Y+040746
X-048047Y+019439
X-048047Y+018439
X-048047Y+017439
X-048047Y+016439
X-048047Y+015439
X-048047Y+014439
X-048047Y+013439
X-048047Y+012439
X-048047Y+011439
X-048047Y+010439
X-048047Y+009439
X-048047Y+008439
X-048047Y+007439
X-048047Y+006439
X-048047Y+005439
X-048047Y+004439
X-048047Y+003439
X-048047Y+002439
X-048047Y+001439
X-048047Y+000439
X-047047Y+019439
X-047047Y+018439
X-047047Y+017439
X-047047Y+016439
X-047047Y+015439
X-047047Y+014439
X-047047Y+013439
X-047047Y+012439
X-047047Y+011439
X-047047Y+010439
X-047047Y+009439
X-047047Y+008439
X-047047Y+007439
X-047047Y+006439
X-047047Y+005439
X-047047Y+004439
X-047047Y+003439
X-047047Y+002439
X-047047Y+001439
X-047047Y+000439
X-040882Y+007746
X-041882Y+007746
X-040882Y+006746
X-041882Y+006746
X-040882Y+005746
X-041882Y+005746
X-020488Y+014321
X-021488Y+014321
X-018327Y+017136
X-018327Y+016136
X-008409Y+044052
X-008409Y+043052
X-008409Y+042052
X-008409Y+041052
X-008409Y+040052
X-008409Y+039052
X-008409Y+038052
X-008409Y+037052
X-008409Y+036052
X-008409Y+035052
X-008409Y+034052
X-008409Y+033052
X-008409Y+032052
X-008409Y+031052
X-008409Y+030052
X-008409Y+029052
X-008409Y+028052
X-008409Y+027052
X-008409Y+026052
X-008409Y+025052
X-007409Y+044052
X-007409Y+043052
X-007409Y+042052
X-007409Y+041052
X-007409Y+040052
X-007409Y+039052
X-007409Y+038052
X-007409Y+037052
X-007409Y+036052
X-007409Y+035052
X-007409Y+034052
X-007409Y+033052
X-007409Y+032052
X-007409Y+031052
X-007409Y+030052
X-007409Y+029052
X-007409Y+028052
X-007409Y+027052
X-007409Y+026052
X-007409Y+025052
X-001244Y+032359
X-002244Y+032359
X-001244Y+031359
X-002244Y+031359
X-001244Y+030359
X-002244Y+030359
X+019149Y+038934
X+018149Y+038934
X+021310Y+041749
X+021310Y+040749
X+006155Y+003616
X+006155Y+004616
X+007033Y+001241
X+006154Y+015299
X+006154Y+016299
X+007013Y+018791
X+006983Y+006904
X+006983Y+012581
X-015016Y+001195
X-015016Y+006831
X-015006Y+012534
X-015006Y+018751
X+030486Y+003616
X+030486Y+004616
X+031363Y+001241
X+030484Y+015299
X+030484Y+016299
X+031343Y+018791
X+031313Y+006904
X+031313Y+012581
X+009313Y+001195
X+009313Y+006831
X+009323Y+012534
X+009323Y+018751
X-047822Y-013834
X-046822Y-013834
X-047822Y-014834
X-046822Y-014834
X-047822Y-015834
X-046822Y-015834
X-039263Y-011315
X-039263Y-010315
X-039263Y-014307
X-039263Y-013307
X-039263Y-017315
X-039263Y-016315
X-039263Y-020385
X-039263Y-019385
X-041940Y-022141
X-041940Y-023141
X-041940Y-018913
X-041940Y-019913
X-045749Y-006561
X-046749Y-006561
X-045749Y-005561
X-046749Y-005561
X-045749Y-004561
X-046749Y-004561
X-044145Y-004566
X-043145Y-004566
X-044145Y-005566
X-043145Y-005566
X-044145Y-006566
X-043145Y-006566
X-049184Y-022086
X-049184Y-023086
X-047834Y-036454
X-046834Y-036454
X-047834Y-037454
X-046834Y-037454
X-047834Y-038454
X-046834Y-038454
X-039275Y-033934
X-039275Y-032934
X-039275Y-036926
X-039275Y-035926
X-039275Y-039934
X-039275Y-038934
X-039275Y-043005
X-039275Y-042005
X-041952Y-044761
X-041952Y-045761
X-041952Y-041533
X-041952Y-042533
X-045761Y-029181
X-046761Y-029181
X-045761Y-028181
X-046761Y-028181
X-045761Y-027181
X-046761Y-027181
X-044157Y-027186
X-043157Y-027186
X-044157Y-028186
X-043157Y-028186
X-044157Y-029186
X-043157Y-029186
X-049196Y-044706
X-049196Y-045706
X-026350Y-013848
X-025350Y-013848
X-026350Y-014848
X-025350Y-014848
X-026350Y-015848
X-025350Y-015848
X-017791Y-011328
X-017791Y-010328
X-017791Y-014320
X-017791Y-013320
X-017791Y-017328
X-017791Y-016328
X-017791Y-020399
X-017791Y-019399
X-020468Y-022155
X-020468Y-023155
X-020468Y-018926
X-020468Y-019926
X-024277Y-006574
X-025277Y-006574
X-024277Y-005574
X-025277Y-005574
X-024277Y-004574
X-025277Y-004574
X-022672Y-004580
X-021672Y-004580
X-022672Y-005580
X-021672Y-005580
X-022672Y-006580
X-021672Y-006580
X-027712Y-022100
X-027712Y-023100
X-026368Y-036470
X-025368Y-036470
X-026368Y-037470
X-025368Y-037470
X-026368Y-038470
X-025368Y-038470
X-017809Y-033950
X-017809Y-032950
X-017809Y-036942
X-017809Y-035942
X-017809Y-039950
X-017809Y-038950
X-017809Y-043021
X-017809Y-042021
X-020486Y-044777
X-020486Y-045777
X-020486Y-041549
X-020486Y-042549
X-024295Y-029196
X-025295Y-029196
X-024295Y-028196
X-025295Y-028196
X-024295Y-027196
X-025295Y-027196
X-022691Y-027202
X-021691Y-027202
X-022691Y-028202
X-021691Y-028202
X-022691Y-029202
X-021691Y-029202
X-027730Y-044722
X-027730Y-045722
X-008247Y-013827
X-007247Y-013827
X-008247Y-014827
X-007247Y-014827
X-008247Y-015827
X-007247Y-015827
X+000311Y-011307
X+000311Y-010307
X+000311Y-014299
X+000311Y-013299
X+000311Y-017307
X+000311Y-016307
X+000311Y-020378
X+000311Y-019378
X-002366Y-022134
X-002366Y-023134
X-002366Y-018905
X-002366Y-019905
X-006174Y-006553
X-007174Y-006553
X-006174Y-005553
X-007174Y-005553
X-006174Y-004553
X-007174Y-004553
X-004570Y-004559
X-003570Y-004559
X-004570Y-005559
X-003570Y-005559
X-004570Y-006559
X-003570Y-006559
X-009610Y-022079
X-009610Y-023079
X-008258Y-036480
X-007258Y-036480
X-008258Y-037480
X-007258Y-037480
X-008258Y-038480
X-007258Y-038480
X+000300Y-033960
X+000300Y-032960
X+000300Y-036952
X+000300Y-035952
X+000300Y-039960
X+000300Y-038960
X+000300Y-043031
X+000300Y-042031
X-002376Y-044787
X-002376Y-045787
X-002376Y-041559
X-002376Y-042559
X-006185Y-029206
X-007185Y-029206
X-006185Y-028206
X-007185Y-028206
X-006185Y-027206
X-007185Y-027206
X-004581Y-027212
X-003581Y-027212
X-004581Y-028212
X-003581Y-028212
X-004581Y-029212
X-003581Y-029212
X-009620Y-044732
X-009620Y-045732
X+006431Y-013845
X+007431Y-013845
X+006431Y-014845
X+007431Y-014845
X+006431Y-015845
X+007431Y-015845
X+014991Y-011325
X+014991Y-010325
X+014991Y-014318
X+014991Y-013318
X+014991Y-017325
X+014991Y-016325
X+014991Y-020396
X+014991Y-019396
X+012313Y-022152
X+012313Y-023152
X+012313Y-018924
X+012313Y-019924
X+008504Y-006572
X+007504Y-006572
X+008504Y-005572
X+007504Y-005572
X+008504Y-004572
X+007504Y-004572
X+010109Y-004577
X+011109Y-004577
X+010109Y-005577
X+011109Y-005577
X+010109Y-006577
X+011109Y-006577
X+005069Y-022097
X+005069Y-023097
X+006454Y-036453
X+007454Y-036453
X+006454Y-037453
X+007454Y-037453
X+006454Y-038453
X+007454Y-038453
X+015013Y-033933
X+015013Y-032933
X+015013Y-036925
X+015013Y-035925
X+015013Y-039933
X+015013Y-038933
X+015013Y-043004
X+015013Y-042004
X+012336Y-044760
X+012336Y-045760
X+012336Y-041531
X+012336Y-042531
X+008527Y-029179
X+007527Y-029179
X+008527Y-028179
X+007527Y-028179
X+008527Y-027179
X+007527Y-027179
X+010131Y-027185
X+011131Y-027185
X+010131Y-028185
X+011131Y-028185
X+010131Y-029185
X+011131Y-029185
X+005092Y-044705
X+005092Y-045705
X+017729Y-008939
X+017729Y-009939
X+017729Y-010939
X+017729Y-011939
X+017729Y-012939
X+017729Y-013939
X+017729Y-014939
X+017729Y-015939
X+017729Y-016939
X+017729Y-017939
X+017729Y-018939
X+017729Y-019939
X+017729Y-020939
X+017729Y-021939
X+017729Y-022939
X+023556Y-009017
X+023556Y-010017
X+023556Y-011017
X+023556Y-012017
X+023556Y-013017
X+023556Y-014017
X+023556Y-015017
X+023556Y-016017
X+023556Y-017017
X+023556Y-018017
X+023556Y-019017
X+023556Y-020017
X+023556Y-021017
X+023556Y-022017
X+023556Y-023017
X+021510Y-008051
X+021510Y-009051
X+020510Y-008051
X+020510Y-009051
X+019510Y-008051
X+019510Y-009051
X+017743Y-026927
X+017743Y-027927
X+017743Y-028927
X+017743Y-029927
X+017743Y-030927
X+017743Y-031927
X+017743Y-032927
X+017743Y-033927
X+017743Y-034927
X+017743Y-035927
X+017743Y-036927
X+017743Y-037927
X+017743Y-038927
X+017743Y-039927
X+017743Y-040927
X+023570Y-027006
X+023570Y-028006
X+023570Y-029006
X+023570Y-030006
X+023570Y-031006
X+023570Y-032006
X+023570Y-033006
X+023570Y-034006
X+023570Y-035006
X+023570Y-036006
X+023570Y-037006
X+023570Y-038006
X+023570Y-039006
X+023570Y-040006
X+023570Y-041006
X+021523Y-026039
X+021523Y-027039
X+020523Y-026039
X+020523Y-027039
X+019523Y-026039
X+019523Y-027039
X+025906Y-008923
X+025906Y-009923
X+025906Y-010923
X+025906Y-011923
X+025906Y-012923
X+025906Y-013923
X+025906Y-014923
X+025906Y-015923
X+025906Y-016923
X+025906Y-017923
X+025906Y-018923
X+025906Y-019923
X+025906Y-020923
X+025906Y-021923
X+025906Y-022923
X+031733Y-009001
X+031733Y-010001
X+031733Y-011001
X+031733Y-012001
X+031733Y-013001
X+031733Y-014001
X+031733Y-015001
X+031733Y-016001
X+031733Y-017001
X+031733Y-018001
X+031733Y-019001
X+031733Y-020001
X+031733Y-021001
X+031733Y-022001
X+031733Y-023001
X+029686Y-008034
X+029686Y-009034
X+028686Y-008034
X+028686Y-009034
X+027686Y-008034
X+027686Y-009034
X+025893Y-026927
X+025893Y-027927
X+025893Y-028927
X+025893Y-029927
X+025893Y-030927
X+025893Y-031927
X+025893Y-032927
X+025893Y-033927
X+025893Y-034927
X+025893Y-035927
X+025893Y-036927
X+025893Y-037927
X+025893Y-038927
X+025893Y-039927
X+025893Y-040927
X+031719Y-027006
X+031719Y-028006
X+031719Y-029006
X+031719Y-030006
X+031719Y-031006
X+031719Y-032006
X+031719Y-033006
X+031719Y-034006
X+031719Y-035006
X+031719Y-036006
X+031719Y-037006
X+031719Y-038006
X+031719Y-039006
X+031719Y-040006
X+031719Y-041006
X+029673Y-026039
X+029673Y-027039
X+028673Y-026039
X+028673Y-027039
X+027673Y-026039
X+027673Y-027039
X+024565Y+038288
X+024565Y+037288
X+024565Y+036288
X+024565Y+035288
X+024565Y+034288
X+024565Y+033288
X+024565Y+032288
X+024565Y+031288
X+024565Y+030288
X+024565Y+029288
X+024565Y+028288
X+024565Y+027288
X+024565Y+026288
X+024565Y+025288
X+024565Y+024288
X+030392Y+038210
X+030392Y+037210
X+030392Y+036210
X+030392Y+035210
X+030392Y+034210
X+030392Y+033210
X+030392Y+032210
X+030392Y+031210
X+030392Y+030210
X+030392Y+029210
X+030392Y+028210
X+030392Y+027210
X+030392Y+026210
X+030392Y+025210
X+030392Y+024210
X+028345Y+039177
X+028345Y+038177
X+027345Y+039177
X+027345Y+038177
X+026345Y+039177
X+026345Y+038177
T04
X-037798Y+043813
X-040593Y+043853
X-037851Y+019203
X-040646Y+019242
X+001787Y+043816
X-001008Y+043855
T05
X-041459Y+035309
X-041459Y+037309
X-027101Y+043866
X-025330Y+043866
X-054562Y+040754
X-054562Y+043195
X-052593Y+043195
X-052593Y+040754
X-050936Y+040750
X-050936Y+043191
X-048967Y+043191
X-048967Y+040750
X-054566Y+036735
X-054566Y+039176
X-052597Y+039176
X-052597Y+036735
X-050952Y+036737
X-050952Y+039177
X-048983Y+039177
X-048983Y+036737
X-054580Y+029847
X-054580Y+032288
X-052611Y+032288
X-052611Y+029847
X-050928Y+029845
X-050928Y+032286
X-048959Y+032286
X-048959Y+029845
X-054580Y+025886
X-054580Y+028327
X-052611Y+028327
X-052611Y+025886
X-050936Y+025898
X-050936Y+028339
X-048967Y+028339
X-048967Y+025898
X-041512Y+010699
X-041512Y+012699
X-027154Y+019256
X-025382Y+019256
X-054614Y+016144
X-054614Y+018585
X-052646Y+018585
X-052646Y+016144
X-050988Y+016140
X-050988Y+018581
X-049020Y+018581
X-049020Y+016140
X-054618Y+012124
X-054618Y+014565
X-052650Y+014565
X-052650Y+012124
X-051004Y+012126
X-051004Y+014567
X-049036Y+014567
X-049036Y+012126
X-054632Y+005236
X-054632Y+007677
X-052664Y+007677
X-052664Y+005236
X-050981Y+005234
X-050981Y+007675
X-049012Y+007675
X-049012Y+005234
X-054632Y+001276
X-054632Y+003717
X-052664Y+003717
X-052664Y+001276
X-050988Y+001288
X-050988Y+003729
X-049020Y+003729
X-049020Y+001288
X-001874Y+035312
X-001874Y+037312
X+012483Y+043869
X+014255Y+043869
X-014976Y+040757
X-014976Y+043198
X-013008Y+043198
X-013008Y+040757
X-011350Y+040753
X-011350Y+043194
X-009382Y+043194
X-009382Y+040753
X-014980Y+036737
X-014980Y+039178
X-013012Y+039178
X-013012Y+036737
X-011366Y+036739
X-011366Y+039180
X-009398Y+039180
X-009398Y+036739
X-014994Y+029850
X-014994Y+032291
X-013025Y+032291
X-013025Y+029850
X-011342Y+029848
X-011342Y+032289
X-009374Y+032289
X-009374Y+029848
X-014994Y+025889
X-014994Y+028330
X-013025Y+028330
X-013025Y+025889
X-011350Y+025901
X-011350Y+028342
X-009382Y+028342
X-009382Y+025901
X-043003Y-010370
X-043003Y-012370
X-046480Y-021722
X-044708Y-021722
X-043015Y-032989
X-043015Y-034989
X-046492Y-044342
X-044720Y-044342
X-021531Y-010383
X-021531Y-012383
X-025007Y-021735
X-023236Y-021735
X-021549Y-033005
X-021549Y-035005
X-025026Y-044357
X-023254Y-044357
X-003429Y-010362
X-003429Y-012362
X-006905Y-021714
X-005133Y-021714
X-003439Y-033015
X-003439Y-035015
X-006916Y-044367
X-005144Y-044367
X+011250Y-010380
X+011250Y-012380
X+007774Y-021733
X+009545Y-021733
X+011273Y-032988
X+011273Y-034988
X+007796Y-044340
X+009568Y-044340
X+019765Y-022732
X+021536Y-022732
X+019778Y-040720
X+021550Y-040720
X+027941Y-022716
X+029713Y-022716
X+027928Y-040720
X+029699Y-040720
X+026600Y+024495
X+028372Y+024495
T06
X-031278Y+027208
X-038955Y+027208
X-031331Y+002597
X-039008Y+002597
X+008306Y+027210
X+000629Y+027210
T07
X-019963Y+028538
X-020751Y+028538
X-021538Y+028538
X-022326Y+028538
X-023113Y+028538
X-023900Y+028538
X-024688Y+028538
X-025475Y+028538
X-026263Y+028538
X-027050Y+028538
X-027837Y+028538
X-028625Y+028538
X-029412Y+028538
X-030278Y+030113
X-030278Y+030908
X-030278Y+031687
X-030278Y+032475
X-029373Y+037199
X-028585Y+037199
X-027798Y+037199
X-027011Y+037199
X-026223Y+037199
X-025436Y+037199
X-024648Y+037199
X-023861Y+037199
X-023074Y+037199
X-022286Y+037199
X-021499Y+037199
X-020711Y+037199
X-019924Y+037199
X-019137Y+037199
X-018349Y+037199
X-017562Y+037199
X-020016Y+003927
X-020803Y+003927
X-021591Y+003927
X-022378Y+003927
X-023166Y+003927
X-023953Y+003927
X-024740Y+003927
X-025528Y+003927
X-026315Y+003927
X-027103Y+003927
X-027890Y+003927
X-028677Y+003927
X-029465Y+003927
X-030331Y+005502
X-030331Y+006297
X-030331Y+007077
X-030331Y+007864
X-029425Y+012589
X-028638Y+012589
X-027851Y+012589
X-027063Y+012589
X-026276Y+012589
X-025488Y+012589
X-024701Y+012589
X-023914Y+012589
X-023126Y+012589
X-022339Y+012589
X-021551Y+012589
X-020764Y+012589
X-019977Y+012589
X-019189Y+012589
X-018402Y+012589
X-017614Y+012589
X+019621Y+028541
X+018834Y+028541
X+018046Y+028541
X+017259Y+028541
X+016472Y+028541
X+015684Y+028541
X+014897Y+028541
X+014109Y+028541
X+013322Y+028541
X+012535Y+028541
X+011747Y+028541
X+010960Y+028541
X+010172Y+028541
X+009306Y+030115
X+009306Y+030911
X+009306Y+031690
X+009306Y+032478
X+010212Y+037202
X+010999Y+037202
X+011787Y+037202
X+012574Y+037202
X+013361Y+037202
X+014149Y+037202
X+014936Y+037202
X+015724Y+037202
X+016511Y+037202
X+017298Y+037202
X+018086Y+037202
X+018873Y+037202
X+019661Y+037202
X+020448Y+037202
X+021235Y+037202
X+022023Y+037202
X-049972Y-006826
X-049972Y-007614
X-049972Y-008401
X-049972Y-009189
X-049972Y-009976
X-049972Y-010763
X-049972Y-011551
X-049972Y-012338
X-049972Y-013126
X-049972Y-013913
X-049972Y-014700
X-049972Y-015488
X-049972Y-016275
X-048397Y-017141
X-047602Y-017141
X-046822Y-017141
X-046035Y-017141
X-041310Y-016236
X-041310Y-015448
X-041310Y-014661
X-041310Y-013874
X-041310Y-013086
X-041310Y-012299
X-041310Y-011511
X-041310Y-010724
X-041310Y-009937
X-041310Y-009149
X-041310Y-008362
X-041310Y-007574
X-041310Y-006787
X-041310Y-006000
X-041310Y-005212
X-041310Y-004425
X-049984Y-029446
X-049984Y-030234
X-049984Y-031021
X-049984Y-031808
X-049984Y-032596
X-049984Y-033383
X-049984Y-034171
X-049984Y-034958
X-049984Y-035745
X-049984Y-036533
X-049984Y-037320
X-049984Y-038108
X-049984Y-038895
X-048409Y-039761
X-047614Y-039761
X-046834Y-039761
X-046047Y-039761
X-041322Y-038856
X-041322Y-038068
X-041322Y-037281
X-041322Y-036493
X-041322Y-035706
X-041322Y-034919
X-041322Y-034131
X-041322Y-033344
X-041322Y-032556
X-041322Y-031769
X-041322Y-030982
X-041322Y-030194
X-041322Y-029407
X-041322Y-028619
X-041322Y-027832
X-041322Y-027045
X-028499Y-006840
X-028499Y-007627
X-028499Y-008415
X-028499Y-009202
X-028499Y-009989
X-028499Y-010777
X-028499Y-011564
X-028499Y-012352
X-028499Y-013139
X-028499Y-013926
X-028499Y-014714
X-028499Y-015501
X-028499Y-016289
X-026924Y-017155
X-026129Y-017155
X-025350Y-017155
X-024562Y-017155
X-019838Y-016249
X-019838Y-015462
X-019838Y-014674
X-019838Y-013887
X-019838Y-013100
X-019838Y-012312
X-019838Y-011525
X-019838Y-010737
X-019838Y-009950
X-019838Y-009163
X-019838Y-008375
X-019838Y-007588
X-019838Y-006800
X-019838Y-006013
X-019838Y-005226
X-019838Y-004438
X-028518Y-029462
X-028518Y-030249
X-028518Y-031037
X-028518Y-031824
X-028518Y-032612
X-028518Y-033399
X-028518Y-034186
X-028518Y-034974
X-028518Y-035761
X-028518Y-036549
X-028518Y-037336
X-028518Y-038123
X-028518Y-038911
X-026943Y-039777
X-026148Y-039777
X-025368Y-039777
X-024581Y-039777
X-019856Y-038871
X-019856Y-038084
X-019856Y-037297
X-019856Y-036509
X-019856Y-035722
X-019856Y-034934
X-019856Y-034147
X-019856Y-033360
X-019856Y-032572
X-019856Y-031785
X-019856Y-030997
X-019856Y-030210
X-019856Y-029423
X-019856Y-028635
X-019856Y-027848
X-019856Y-027060
X-010397Y-006819
X-010397Y-007606
X-010397Y-008394
X-010397Y-009181
X-010397Y-009968
X-010397Y-010756
X-010397Y-011543
X-010397Y-012331
X-010397Y-013118
X-010397Y-013905
X-010397Y-014693
X-010397Y-015480
X-010397Y-016268
X-008822Y-017134
X-008027Y-017134
X-007247Y-017134
X-006460Y-017134
X-001736Y-016228
X-001736Y-015441
X-001736Y-014653
X-001736Y-013866
X-001736Y-013079
X-001736Y-012291
X-001736Y-011504
X-001736Y-010716
X-001736Y-009929
X-001736Y-009142
X-001736Y-008354
X-001736Y-007567
X-001736Y-006779
X-001736Y-005992
X-001736Y-005205
X-001736Y-004417
X-010407Y-029472
X-010407Y-030259
X-010407Y-031047
X-010407Y-031834
X-010407Y-032622
X-010407Y-033409
X-010407Y-034196
X-010407Y-034984
X-010407Y-035771
X-010407Y-036559
X-010407Y-037346
X-010407Y-038133
X-010407Y-038921
X-008833Y-039787
X-008037Y-039787
X-007258Y-039787
X-006470Y-039787
X-001746Y-038881
X-001746Y-038094
X-001746Y-037307
X-001746Y-036519
X-001746Y-035732
X-001746Y-034944
X-001746Y-034157
X-001746Y-033370
X-001746Y-032582
X-001746Y-031795
X-001746Y-031007
X-001746Y-030220
X-001746Y-029433
X-001746Y-028645
X-001746Y-027858
X-001746Y-027070
X+004282Y-006837
X+004282Y-007625
X+004282Y-008412
X+004282Y-009199
X+004282Y-009987
X+004282Y-010774
X+004282Y-011562
X+004282Y-012349
X+004282Y-013136
X+004282Y-013924
X+004282Y-014711
X+004282Y-015499
X+004282Y-016286
X+005857Y-017152
X+006652Y-017152
X+007431Y-017152
X+008219Y-017152
X+012943Y-016247
X+012943Y-015459
X+012943Y-014672
X+012943Y-013884
X+012943Y-013097
X+012943Y-012310
X+012943Y-011522
X+012943Y-010735
X+012943Y-009947
X+012943Y-009160
X+012943Y-008373
X+012943Y-007585
X+012943Y-006798
X+012943Y-006010
X+012943Y-005223
X+012943Y-004436
X+004304Y-029445
X+004304Y-030232
X+004304Y-031020
X+004304Y-031807
X+004304Y-032594
X+004304Y-033382
X+004304Y-034169
X+004304Y-034957
X+004304Y-035744
X+004304Y-036531
X+004304Y-037319
X+004304Y-038106
X+004304Y-038894
X+005879Y-039760
X+006674Y-039760
X+007454Y-039760
X+008241Y-039760
X+012966Y-038854
X+012966Y-038067
X+012966Y-037279
X+012966Y-036492
X+012966Y-035705
X+012966Y-034917
X+012966Y-034130
X+012966Y-033342
X+012966Y-032555
X+012966Y-031768
X+012966Y-030980
X+012966Y-030193
X+012966Y-029405
X+012966Y-028618
X+012966Y-027831
X+012966Y-027043
T08
X-039253Y-003834
X-050946Y-003834
X-050946Y-023519
X-039253Y-023519
X-053889Y-004326
X-053889Y-023027
X-036369Y-004326
X-036369Y-023027
X-039265Y-026454
X-050958Y-026454
X-050958Y-046139
X-039265Y-046139
X-053901Y-026946
X-053901Y-045647
X-036381Y-026946
X-036381Y-045647
X-017781Y-003848
X-029473Y-003848
X-029473Y-023533
X-017781Y-023533
X-032417Y-004340
X-032417Y-023041
X-014897Y-004340
X-014897Y-023041
X-017799Y-026470
X-029492Y-026470
X-029492Y-046155
X-017799Y-046155
X-032435Y-026962
X-032435Y-045663
X-014915Y-026962
X-014915Y-045663
X+000321Y-003827
X-011371Y-003827
X-011371Y-023512
X+000321Y-023512
X+000310Y-026480
X-011382Y-026480
X-011382Y-046165
X+000310Y-046165
X+015001Y-003845
X+003308Y-003845
X+003308Y-023530
X+015001Y-023530
X+015023Y-026453
X+003330Y-026453
X+003330Y-046138
X+015023Y-046138
T09
X+017621Y-007953
X+023606Y-007953
X+017621Y-023953
X+023606Y-023953
X+017635Y-025941
X+023619Y-025941
X+017635Y-041941
X+023619Y-041941
X+025798Y-007937
X+031782Y-007937
X+025798Y-023937
X+031782Y-023937
X+025784Y-025941
X+031769Y-025941
X+025784Y-041941
X+031769Y-041941
X+024457Y+039274
X+030441Y+039274
X+024457Y+023274
X+030441Y+023274
M30
