G04 GerbMagic V3.6(Build 14551) Date:Mon Jul 18 17:47:41 2016*
G04 F:\2 SVN XBee\trunk\XBeeRemoteController\ODB_Power\Power.gbr *
%FSLAX24Y24*%
%MOIN*%
%SFA1.000B1.000*%
%MIA0B0*%
%OFA0B0*%
%INGerber*%
%IPPOS*%
%ADD10C,0.04*%
%ADD11C,0.008*%
%ADD12R,0.1X0.1*%
%ADD13C,0.1*%
%ADD14C,0.03*%
%ADD15R,0.08X0.08*%
%ADD16C,0.08*%
%LN*
LPD*%
G54D10*
X28756Y11602D03*
Y12602D03*
X28835Y9200D03*
Y23295D03*
Y24295D03*
X28874Y26759D03*
X28835Y14870D03*
Y20539D03*
X6551Y9161D03*
Y14791D03*
Y20500D03*
Y26720D03*
%LN*
LPD*%
X28756Y36119D03*
Y37119D03*
X28835Y33718D03*
Y47812D03*
Y48812D03*
X28874Y51277D03*
X28835Y39387D03*
Y45056D03*
X6551Y33678D03*
Y39308D03*
Y45017D03*
Y51237D03*
%LN*
LPD*%
X6039Y29717D02*
G54D11*
G01Y6067D01*
X29389Y29717D02*
G01X6039D01*
X29389Y6067D02*
G01Y29717D01*
X6039Y6067D02*
G01X29389D01*
%LN*
LPD*%
X6039Y54274D02*
G01Y30624D01*
X29389Y54274D02*
G01X6039D01*
X29389Y30624D02*
G01Y54274D01*
X6039Y30624D02*
G01X29389D01*
%LN*
LPD*%
X29025Y28563D02*
G01X28587D01*
X27887Y28723D02*
G01X27975Y28803D01*
X27975Y28803D02*
G01X28237D01*
X28237Y28803D02*
G01X28325Y28723D01*
X28325Y28723D02*
G01Y28403D01*
X28325Y28403D02*
G01X28237Y28323D01*
X28237Y28323D02*
G01X27975D01*
X27975Y28323D02*
G01X27887Y28403D01*
X27887Y28403D02*
G01Y28483D01*
X27887Y28483D02*
G01X27975Y28563D01*
X27975Y28563D02*
G01X28325D01*
X27712Y28643D02*
G01X27450Y28323D01*
X27450Y28323D02*
G01X27187Y28643D01*
X29532Y7528D02*
G01X29007D01*
X29269Y7768D02*
G01Y7288D01*
X28307Y7768D02*
G01X28394Y7888D01*
X28394Y7888D02*
G01X28657D01*
X28657Y7888D02*
G01X28744Y7768D01*
X28744Y7768D02*
G01Y7288D01*
X28744Y7288D02*
G01X28657Y7168D01*
X28657Y7168D02*
G01X28394D01*
X28394Y7168D02*
G01X28307Y7288D01*
X28307Y7288D02*
G01Y7408D01*
X28307Y7408D02*
G01X28394Y7528D01*
X28394Y7528D02*
G01X28744D01*
X28132Y7648D02*
G01X27869Y7168D01*
X27869Y7168D02*
G01X27607Y7648D01*
X29756Y10602D02*
G01Y13602D01*
X26935Y12226D02*
G01X26985D01*
X26985Y12226D02*
G01X27035Y12176D01*
X27035Y12176D02*
G01Y11976D01*
X27035Y11976D02*
G01X26985Y11926D01*
X26985Y11926D02*
G01X26735D01*
X26785Y11776D02*
G01X26735Y11726D01*
X26735Y11726D02*
G01Y11576D01*
X26735Y11576D02*
G01X26785Y11526D01*
X26785Y11526D02*
G01X26835D01*
X26835Y11526D02*
G01X26885Y11576D01*
X26885Y11576D02*
G01X26935Y11526D01*
X26935Y11526D02*
G01X26985D01*
X26985Y11526D02*
G01X27035Y11576D01*
X27035Y11576D02*
G01Y11726D01*
X27035Y11726D02*
G01X26985Y11776D01*
X26885Y11676D02*
G01Y11576D01*
X29835Y22295D02*
G01Y25295D01*
X27250Y25494D02*
G01X27300D01*
X27300Y25494D02*
G01X27350Y25444D01*
X27350Y25444D02*
G01Y25244D01*
X27350Y25244D02*
G01X27300Y25194D01*
X27300Y25194D02*
G01X27050D01*
X27250Y24794D02*
G01Y25094D01*
X27250Y25094D02*
G01X27050Y24894D01*
X27050Y24894D02*
G01X27350D01*
X27756Y13602D02*
G01Y10602D01*
X30256Y13602D02*
G01X27756D01*
X30256Y10602D02*
G01Y13602D01*
X27756Y10602D02*
G01X30256D01*
X27835Y25295D02*
G01Y22295D01*
X30335Y25295D02*
G01X27835D01*
X30335Y22295D02*
G01Y25295D01*
X27835Y22295D02*
G01X30335D01*
%LN*
LPD*%
X29025Y53080D02*
G01X28587D01*
X27887Y53240D02*
G01X27975Y53320D01*
X27975Y53320D02*
G01X28237D01*
X28237Y53320D02*
G01X28325Y53240D01*
X28325Y53240D02*
G01Y52920D01*
X28325Y52920D02*
G01X28237Y52840D01*
X28237Y52840D02*
G01X27975D01*
X27975Y52840D02*
G01X27887Y52920D01*
X27887Y52920D02*
G01Y53000D01*
X27887Y53000D02*
G01X27975Y53080D01*
X27975Y53080D02*
G01X28325D01*
X27712Y53160D02*
G01X27450Y52840D01*
X27450Y52840D02*
G01X27187Y53160D01*
X29532Y32045D02*
G01X29007D01*
X29269Y32285D02*
G01Y31805D01*
X28307Y32285D02*
G01X28394Y32405D01*
X28394Y32405D02*
G01X28657D01*
X28657Y32405D02*
G01X28744Y32285D01*
X28744Y32285D02*
G01Y31805D01*
X28744Y31805D02*
G01X28657Y31685D01*
X28657Y31685D02*
G01X28394D01*
X28394Y31685D02*
G01X28307Y31805D01*
X28307Y31805D02*
G01Y31925D01*
X28307Y31925D02*
G01X28394Y32045D01*
X28394Y32045D02*
G01X28744D01*
X28132Y32165D02*
G01X27869Y31685D01*
X27869Y31685D02*
G01X27607Y32165D01*
X29756Y35119D02*
G01Y38119D01*
X26935Y36744D02*
G01X26985D01*
X26985Y36744D02*
G01X27035Y36694D01*
X27035Y36694D02*
G01Y36494D01*
X27035Y36494D02*
G01X26985Y36444D01*
X26985Y36444D02*
G01X26735D01*
X26785Y36294D02*
G01X26735Y36244D01*
X26735Y36244D02*
G01Y36094D01*
X26735Y36094D02*
G01X26785Y36044D01*
X26785Y36044D02*
G01X26835D01*
X26835Y36044D02*
G01X26885Y36094D01*
X26885Y36094D02*
G01X26935Y36044D01*
X26935Y36044D02*
G01X26985D01*
X26985Y36044D02*
G01X27035Y36094D01*
X27035Y36094D02*
G01Y36244D01*
X27035Y36244D02*
G01X26985Y36294D01*
X26885Y36194D02*
G01Y36094D01*
X29835Y46812D02*
G01Y49812D01*
X27250Y50011D02*
G01X27300D01*
X27300Y50011D02*
G01X27350Y49961D01*
X27350Y49961D02*
G01Y49761D01*
X27350Y49761D02*
G01X27300Y49711D01*
X27300Y49711D02*
G01X27050D01*
X27250Y49311D02*
G01Y49611D01*
X27250Y49611D02*
G01X27050Y49411D01*
X27050Y49411D02*
G01X27350D01*
X27756Y38119D02*
G01Y35119D01*
X30256Y38119D02*
G01X27756D01*
X30256Y35119D02*
G01Y38119D01*
X27756Y35119D02*
G01X30256D01*
X27835Y49812D02*
G01Y46812D01*
X30335Y49812D02*
G01X27835D01*
X30335Y46812D02*
G01Y49812D01*
X27835Y46812D02*
G01X30335D01*
%LN*
LPC*%
G54D13*
X28756Y11602D03*
Y12602D03*
G54D12*
X28835Y9200D03*
G54D13*
Y23295D03*
Y24295D03*
G54D12*
X28874Y26759D03*
X28835Y14870D03*
Y20539D03*
X6551Y9161D03*
Y14791D03*
Y20500D03*
Y26720D03*
%LN*
LPC*%
G54D13*
X28756Y36119D03*
Y37119D03*
G54D12*
X28835Y33718D03*
G54D13*
Y47812D03*
Y48812D03*
G54D12*
X28874Y51277D03*
X28835Y39387D03*
Y45056D03*
X6551Y33678D03*
Y39308D03*
Y45017D03*
Y51237D03*
%LN*
LPD*%
G54D16*
X28756Y11602D03*
Y12602D03*
G54D15*
X28835Y9200D03*
G54D16*
Y23295D03*
Y24295D03*
G54D15*
X28874Y26759D03*
X28835Y14870D03*
Y20539D03*
X6551Y9161D03*
Y14791D03*
Y20500D03*
Y26720D03*
X28835Y23295D02*
G54D10*
G01X26544D01*
X26544Y23295D02*
G01X26436Y23188D01*
X26436Y23188D02*
G01Y12660D01*
X26436Y12660D02*
G01X26494Y12602D01*
X26494Y12602D02*
G01X28756D01*
X28756Y12602D02*
G01X28756Y12602D01*
X28835Y20539D02*
G01Y14870D01*
X28756Y11602D02*
G01X28835Y11523D01*
X28835Y11523D02*
G01Y9200D01*
X28835Y24295D02*
G01X28874D01*
X28874Y24295D02*
G01Y26759D01*
X6551Y14791D02*
G54D14*
G01Y9161D01*
X6551Y26720D02*
G01Y20500D01*
%LN*
LPD*%
G54D16*
X28756Y36119D03*
Y37119D03*
G54D15*
X28835Y33718D03*
G54D16*
Y47812D03*
Y48812D03*
G54D15*
X28874Y51277D03*
X28835Y39387D03*
Y45056D03*
X6551Y33678D03*
Y39308D03*
Y45017D03*
Y51237D03*
X28835Y47812D02*
G54D10*
G01X26544D01*
X26544Y47812D02*
G01X26436Y47705D01*
X26436Y47705D02*
G01Y37177D01*
X26436Y37177D02*
G01X26494Y37119D01*
X26494Y37119D02*
G01X28756D01*
X28756Y37119D02*
G01X28756Y37119D01*
X28835Y45056D02*
G01Y39387D01*
X28756Y36119D02*
G01X28835Y36040D01*
X28835Y36040D02*
G01Y33718D01*
X28835Y48812D02*
G01X28874D01*
X28874Y48812D02*
G01Y51277D01*
X6551Y39308D02*
G54D14*
G01Y33678D01*
X6551Y51237D02*
G01Y45017D01*
%LN*
LPD*%
G54D16*
X28756Y11602D03*
Y12602D03*
G54D15*
X28835Y9200D03*
G54D16*
Y23295D03*
Y24295D03*
G54D15*
X28874Y26759D03*
X28835Y14870D03*
Y20539D03*
X6551Y9161D03*
Y14791D03*
Y20500D03*
Y26720D03*
%LN*
LPD*%
G54D16*
X28756Y36119D03*
Y37119D03*
G54D15*
X28835Y33718D03*
G54D16*
Y47812D03*
Y48812D03*
G54D15*
X28874Y51277D03*
X28835Y39387D03*
Y45056D03*
X6551Y33678D03*
Y39308D03*
Y45017D03*
Y51237D03*
%LN*
LPC*%
G54D13*
X28756Y11602D03*
Y12602D03*
G54D12*
X28835Y9200D03*
G54D13*
Y23295D03*
Y24295D03*
G54D12*
X28874Y26759D03*
X28835Y14870D03*
Y20539D03*
X6551Y9161D03*
Y14791D03*
Y20500D03*
Y26720D03*
%LN*
LPC*%
G54D13*
X28756Y36119D03*
Y37119D03*
G54D12*
X28835Y33718D03*
G54D13*
Y47812D03*
Y48812D03*
G54D12*
X28874Y51277D03*
X28835Y39387D03*
Y45056D03*
X6551Y33678D03*
Y39308D03*
Y45017D03*
Y51237D03*
%LN*
LPD*%
X26978Y9114D02*
G54D11*
G01Y9064D01*
X26978Y9064D02*
G01X27028Y9014D01*
X27028Y9014D02*
G01X27228D01*
X27228Y9014D02*
G01X27278Y9064D01*
X27278Y9064D02*
G01Y9314D01*
X27678Y9314D02*
G01X27428D01*
X27428Y9314D02*
G01Y9214D01*
X27428Y9214D02*
G01X27628D01*
X27628Y9214D02*
G01X27678Y9164D01*
X27678Y9164D02*
G01Y9064D01*
X27678Y9064D02*
G01X27628Y9014D01*
X27628Y9014D02*
G01X27478D01*
X27478Y9014D02*
G01X27428Y9064D01*
X26781Y26791D02*
G01Y26741D01*
X26781Y26741D02*
G01X26831Y26691D01*
X26831Y26691D02*
G01X27031D01*
X27031Y26691D02*
G01X27081Y26741D01*
X27081Y26741D02*
G01Y26991D01*
X27281Y26841D02*
G01X27231Y26891D01*
X27231Y26891D02*
G01Y26941D01*
X27231Y26941D02*
G01X27281Y26991D01*
X27281Y26991D02*
G01X27431D01*
X27431Y26991D02*
G01X27481Y26941D01*
X27481Y26941D02*
G01Y26891D01*
X27481Y26891D02*
G01X27431Y26841D01*
X27431Y26841D02*
G01X27281D01*
X27281Y26841D02*
G01X27231Y26791D01*
X27231Y26791D02*
G01Y26741D01*
X27231Y26741D02*
G01X27281Y26691D01*
X27281Y26691D02*
G01X27431D01*
X27431Y26691D02*
G01X27481Y26741D01*
X27481Y26741D02*
G01Y26791D01*
X27481Y26791D02*
G01X27431Y26841D01*
X26939Y14822D02*
G01Y14772D01*
X26939Y14772D02*
G01X26989Y14722D01*
X26989Y14722D02*
G01X27189D01*
X27189Y14722D02*
G01X27239Y14772D01*
X27239Y14772D02*
G01Y15022D01*
X27639Y14972D02*
G01X27589Y15022D01*
X27589Y15022D02*
G01X27439D01*
X27439Y15022D02*
G01X27389Y14972D01*
X27389Y14972D02*
G01Y14772D01*
X27389Y14772D02*
G01X27439Y14722D01*
X27439Y14722D02*
G01X27589D01*
X27589Y14722D02*
G01X27639Y14772D01*
X27639Y14772D02*
G01Y14822D01*
X27639Y14822D02*
G01X27589Y14872D01*
X27589Y14872D02*
G01X27389D01*
X26860Y20492D02*
G01Y20442D01*
X26860Y20442D02*
G01X26910Y20392D01*
X26910Y20392D02*
G01X27110D01*
X27110Y20392D02*
G01X27160Y20442D01*
X27160Y20442D02*
G01Y20692D01*
X27310Y20692D02*
G01X27560D01*
X27560Y20692D02*
G01Y20642D01*
X27560Y20642D02*
G01X27310Y20392D01*
X7647Y9114D02*
G01Y9064D01*
X7647Y9064D02*
G01X7697Y9014D01*
X7697Y9014D02*
G01X7897D01*
X7897Y9014D02*
G01X7947Y9064D01*
X7947Y9064D02*
G01Y9314D01*
X8347Y9214D02*
G01X8297Y9164D01*
X8297Y9164D02*
G01X8147D01*
X8147Y9164D02*
G01X8097Y9214D01*
X8097Y9214D02*
G01Y9264D01*
X8097Y9264D02*
G01X8147Y9314D01*
X8147Y9314D02*
G01X8297D01*
X8297Y9314D02*
G01X8347Y9264D01*
X8347Y9264D02*
G01Y9064D01*
X8347Y9064D02*
G01X8297Y9014D01*
X8297Y9014D02*
G01X8147D01*
X7526Y14744D02*
G01Y14694D01*
X7526Y14694D02*
G01X7576Y14644D01*
X7576Y14644D02*
G01X7776D01*
X7776Y14644D02*
G01X7826Y14694D01*
X7826Y14694D02*
G01Y14944D01*
X8026Y14844D02*
G01X8126Y14944D01*
X8126Y14944D02*
G01Y14644D01*
X8326Y14694D02*
G01Y14894D01*
X8326Y14894D02*
G01X8376Y14944D01*
X8376Y14944D02*
G01X8576D01*
X8576Y14944D02*
G01X8626Y14894D01*
X8626Y14894D02*
G01Y14694D01*
X8626Y14694D02*
G01X8576Y14644D01*
X8576Y14644D02*
G01X8376D01*
X8376Y14644D02*
G01X8326Y14694D01*
X8326Y14644D02*
G01X8626Y14944D01*
X7762Y20492D02*
G01Y20442D01*
X7762Y20442D02*
G01X7812Y20392D01*
X7812Y20392D02*
G01X8012D01*
X8012Y20392D02*
G01X8062Y20442D01*
X8062Y20442D02*
G01Y20692D01*
X8262Y20592D02*
G01X8362Y20692D01*
X8362Y20692D02*
G01Y20392D01*
X8662Y20592D02*
G01X8762Y20692D01*
X8762Y20692D02*
G01Y20392D01*
X7644Y26673D02*
G01Y26623D01*
X7644Y26623D02*
G01X7694Y26573D01*
X7694Y26573D02*
G01X7894D01*
X7894Y26573D02*
G01X7944Y26623D01*
X7944Y26623D02*
G01Y26873D01*
X8144Y26773D02*
G01X8244Y26873D01*
X8244Y26873D02*
G01Y26573D01*
X8494Y26823D02*
G01X8544Y26873D01*
X8544Y26873D02*
G01X8694D01*
X8694Y26873D02*
G01X8744Y26823D01*
X8744Y26823D02*
G01Y26773D01*
X8744Y26773D02*
G01X8694Y26723D01*
X8694Y26723D02*
G01X8744Y26673D01*
X8744Y26673D02*
G01Y26623D01*
X8744Y26623D02*
G01X8694Y26573D01*
X8694Y26573D02*
G01X8544D01*
X8544Y26573D02*
G01X8494Y26623D01*
X8594Y26723D02*
G01X8694D01*
X28335Y9700D02*
G01Y8700D01*
X29335Y9700D02*
G01X28335D01*
X29335Y8700D02*
G01Y9700D01*
X28335Y8700D02*
G01X29335D01*
X28374Y27259D02*
G01Y26259D01*
X29374Y27259D02*
G01X28374D01*
X29374Y26259D02*
G01Y27259D01*
X28374Y26259D02*
G01X29374D01*
X28335Y15370D02*
G01Y14370D01*
X29335Y15370D02*
G01X28335D01*
X29335Y14370D02*
G01Y15370D01*
X28335Y14370D02*
G01X29335D01*
X28335Y21039D02*
G01Y20039D01*
X29335Y21039D02*
G01X28335D01*
X29335Y20039D02*
G01Y21039D01*
X28335Y20039D02*
G01X29335D01*
X6051Y9661D02*
G01Y8661D01*
X7051Y9661D02*
G01X6051D01*
X7051Y8661D02*
G01Y9661D01*
X6051Y8661D02*
G01X7051D01*
X6051Y15291D02*
G01Y14291D01*
X7051Y15291D02*
G01X6051D01*
X7051Y14291D02*
G01Y15291D01*
X6051Y14291D02*
G01X7051D01*
X6051Y21000D02*
G01Y20000D01*
X7051Y21000D02*
G01X6051D01*
X7051Y20000D02*
G01Y21000D01*
X6051Y20000D02*
G01X7051D01*
X6051Y27220D02*
G01Y26220D01*
X7051Y27220D02*
G01X6051D01*
X7051Y26220D02*
G01Y27220D01*
X6051Y26220D02*
G01X7051D01*
X6039Y29662D02*
G01Y6040D01*
X29386Y29662D02*
G01X6039D01*
X29386Y6040D02*
G01Y29662D01*
X6039Y6040D02*
G01X29386D01*
%LN*
LPD*%
X26978Y33631D02*
G01Y33581D01*
X26978Y33581D02*
G01X27028Y33531D01*
X27028Y33531D02*
G01X27228D01*
X27228Y33531D02*
G01X27278Y33581D01*
X27278Y33581D02*
G01Y33831D01*
X27678Y33831D02*
G01X27428D01*
X27428Y33831D02*
G01Y33731D01*
X27428Y33731D02*
G01X27628D01*
X27628Y33731D02*
G01X27678Y33681D01*
X27678Y33681D02*
G01Y33581D01*
X27678Y33581D02*
G01X27628Y33531D01*
X27628Y33531D02*
G01X27478D01*
X27478Y33531D02*
G01X27428Y33581D01*
X26781Y51308D02*
G01Y51258D01*
X26781Y51258D02*
G01X26831Y51208D01*
X26831Y51208D02*
G01X27031D01*
X27031Y51208D02*
G01X27081Y51258D01*
X27081Y51258D02*
G01Y51508D01*
X27281Y51358D02*
G01X27231Y51408D01*
X27231Y51408D02*
G01Y51458D01*
X27231Y51458D02*
G01X27281Y51508D01*
X27281Y51508D02*
G01X27431D01*
X27431Y51508D02*
G01X27481Y51458D01*
X27481Y51458D02*
G01Y51408D01*
X27481Y51408D02*
G01X27431Y51358D01*
X27431Y51358D02*
G01X27281D01*
X27281Y51358D02*
G01X27231Y51308D01*
X27231Y51308D02*
G01Y51258D01*
X27231Y51258D02*
G01X27281Y51208D01*
X27281Y51208D02*
G01X27431D01*
X27431Y51208D02*
G01X27481Y51258D01*
X27481Y51258D02*
G01Y51308D01*
X27481Y51308D02*
G01X27431Y51358D01*
X26939Y39339D02*
G01Y39289D01*
X26939Y39289D02*
G01X26989Y39239D01*
X26989Y39239D02*
G01X27189D01*
X27189Y39239D02*
G01X27239Y39289D01*
X27239Y39289D02*
G01Y39539D01*
X27639Y39489D02*
G01X27589Y39539D01*
X27589Y39539D02*
G01X27439D01*
X27439Y39539D02*
G01X27389Y39489D01*
X27389Y39489D02*
G01Y39289D01*
X27389Y39289D02*
G01X27439Y39239D01*
X27439Y39239D02*
G01X27589D01*
X27589Y39239D02*
G01X27639Y39289D01*
X27639Y39289D02*
G01Y39339D01*
X27639Y39339D02*
G01X27589Y39389D01*
X27589Y39389D02*
G01X27389D01*
X26860Y45009D02*
G01Y44959D01*
X26860Y44959D02*
G01X26910Y44909D01*
X26910Y44909D02*
G01X27110D01*
X27110Y44909D02*
G01X27160Y44959D01*
X27160Y44959D02*
G01Y45209D01*
X27310Y45209D02*
G01X27560D01*
X27560Y45209D02*
G01Y45159D01*
X27560Y45159D02*
G01X27310Y44909D01*
X7647Y33631D02*
G01Y33581D01*
X7647Y33581D02*
G01X7697Y33531D01*
X7697Y33531D02*
G01X7897D01*
X7897Y33531D02*
G01X7947Y33581D01*
X7947Y33581D02*
G01Y33831D01*
X8347Y33731D02*
G01X8297Y33681D01*
X8297Y33681D02*
G01X8147D01*
X8147Y33681D02*
G01X8097Y33731D01*
X8097Y33731D02*
G01Y33781D01*
X8097Y33781D02*
G01X8147Y33831D01*
X8147Y33831D02*
G01X8297D01*
X8297Y33831D02*
G01X8347Y33781D01*
X8347Y33781D02*
G01Y33581D01*
X8347Y33581D02*
G01X8297Y33531D01*
X8297Y33531D02*
G01X8147D01*
X7526Y39261D02*
G01Y39211D01*
X7526Y39211D02*
G01X7576Y39161D01*
X7576Y39161D02*
G01X7776D01*
X7776Y39161D02*
G01X7826Y39211D01*
X7826Y39211D02*
G01Y39461D01*
X8026Y39361D02*
G01X8126Y39461D01*
X8126Y39461D02*
G01Y39161D01*
X8326Y39211D02*
G01Y39411D01*
X8326Y39411D02*
G01X8376Y39461D01*
X8376Y39461D02*
G01X8576D01*
X8576Y39461D02*
G01X8626Y39411D01*
X8626Y39411D02*
G01Y39211D01*
X8626Y39211D02*
G01X8576Y39161D01*
X8576Y39161D02*
G01X8376D01*
X8376Y39161D02*
G01X8326Y39211D01*
X8326Y39161D02*
G01X8626Y39461D01*
X7762Y45009D02*
G01Y44959D01*
X7762Y44959D02*
G01X7812Y44909D01*
X7812Y44909D02*
G01X8012D01*
X8012Y44909D02*
G01X8062Y44959D01*
X8062Y44959D02*
G01Y45209D01*
X8262Y45109D02*
G01X8362Y45209D01*
X8362Y45209D02*
G01Y44909D01*
X8662Y45109D02*
G01X8762Y45209D01*
X8762Y45209D02*
G01Y44909D01*
X7644Y51190D02*
G01Y51140D01*
X7644Y51140D02*
G01X7694Y51090D01*
X7694Y51090D02*
G01X7894D01*
X7894Y51090D02*
G01X7944Y51140D01*
X7944Y51140D02*
G01Y51390D01*
X8144Y51290D02*
G01X8244Y51390D01*
X8244Y51390D02*
G01Y51090D01*
X8494Y51340D02*
G01X8544Y51390D01*
X8544Y51390D02*
G01X8694D01*
X8694Y51390D02*
G01X8744Y51340D01*
X8744Y51340D02*
G01Y51290D01*
X8744Y51290D02*
G01X8694Y51240D01*
X8694Y51240D02*
G01X8744Y51190D01*
X8744Y51190D02*
G01Y51140D01*
X8744Y51140D02*
G01X8694Y51090D01*
X8694Y51090D02*
G01X8544D01*
X8544Y51090D02*
G01X8494Y51140D01*
X8594Y51240D02*
G01X8694D01*
X28335Y34218D02*
G01Y33218D01*
X29335Y34218D02*
G01X28335D01*
X29335Y33218D02*
G01Y34218D01*
X28335Y33218D02*
G01X29335D01*
X28374Y51777D02*
G01Y50777D01*
X29374Y51777D02*
G01X28374D01*
X29374Y50777D02*
G01Y51777D01*
X28374Y50777D02*
G01X29374D01*
X28335Y39887D02*
G01Y38887D01*
X29335Y39887D02*
G01X28335D01*
X29335Y38887D02*
G01Y39887D01*
X28335Y38887D02*
G01X29335D01*
X28335Y45556D02*
G01Y44556D01*
X29335Y45556D02*
G01X28335D01*
X29335Y44556D02*
G01Y45556D01*
X28335Y44556D02*
G01X29335D01*
X6051Y34178D02*
G01Y33178D01*
X7051Y34178D02*
G01X6051D01*
X7051Y33178D02*
G01Y34178D01*
X6051Y33178D02*
G01X7051D01*
X6051Y39808D02*
G01Y38808D01*
X7051Y39808D02*
G01X6051D01*
X7051Y38808D02*
G01Y39808D01*
X6051Y38808D02*
G01X7051D01*
X6051Y45517D02*
G01Y44517D01*
X7051Y45517D02*
G01X6051D01*
X7051Y44517D02*
G01Y45517D01*
X6051Y44517D02*
G01X7051D01*
X6051Y51737D02*
G01Y50737D01*
X7051Y51737D02*
G01X6051D01*
X7051Y50737D02*
G01Y51737D01*
X6051Y50737D02*
G01X7051D01*
X6039Y54179D02*
G01Y30557D01*
X29386Y54179D02*
G01X6039D01*
X29386Y30557D02*
G01Y54179D01*
X6039Y30557D02*
G01X29386D01*
M02*
