M48
INCH
T01C0.0150
T02C0.0910
T03C0.0320
T04C0.0400
T05C0.0300
%
T01
X+011510Y+018750
X+011510Y+018000
X+011510Y+016000
X+001760Y+002750
X+004510Y+011500
X+007760Y+002750
X+011650Y+004820
X+003887Y+016794
X+003051Y+008669
X+009350Y+009253
X+009453Y+009983
X+003070Y+010750
X+002760Y+012500
X+002834Y+015250
X+003267Y+015826
X+005010Y+016250
X+004921Y+014763
X+004330Y+019724
X+002260Y+007750
X+000269Y+007649
X+008876Y+003467
X+008779Y+005944
X+008260Y+000629
X+011771Y+008267
X+011190Y+008712
X+010454Y+007532
X+009094Y+007716
X+008835Y+007414
X+009188Y+006114
X+007260Y+013250
X+007755Y+016181
X+005905Y+014173
X+005260Y+013750
X+006760Y+017250
X+005260Y+014250
X+009990Y+006192
X+002510Y+004500
X+004876Y+005775
X+003086Y+009369
X+008510Y+005039
X+008003Y+007894
X+006446Y+007343
X+007010Y+018250
X+009074Y+016424
X+010331Y+005697
X+008248Y+005590
X+005812Y+006183
X+006760Y+004500
X+001267Y+018690
X+011510Y+016500
X+004010Y+003750
X+004510Y+003500
X+008754Y+001945
X+005393Y+006181
X+001899Y+019246
X+000510Y+014250
X+003700Y+018243
X+004510Y+019250
X+002260Y+018250
X+008760Y+009566
X+008760Y+016250
X+009720Y+012799
X+008228Y+006102
X+000510Y+013750
X+011233Y+020971
X+007010Y+007750
X+006380Y+008630
X+007070Y+009470
X+001948Y+005944
X+005760Y+009250
X+026076Y+018750
X+026076Y+018000
X+026076Y+016000
X+016326Y+002750
X+019076Y+011500
X+022326Y+002750
X+026216Y+004820
X+018454Y+016794
X+017617Y+008669
X+023916Y+009253
X+024020Y+009983
X+017637Y+010750
X+017326Y+012500
X+017401Y+015250
X+017834Y+015826
X+019576Y+016250
X+019488Y+014763
X+018897Y+019724
X+016826Y+007750
X+014836Y+007649
X+023443Y+003467
X+023346Y+005944
X+022826Y+000629
X+026338Y+008267
X+025757Y+008712
X+025021Y+007532
X+023661Y+007716
X+023402Y+007414
X+023755Y+006114
X+021826Y+013250
X+022322Y+016181
X+020472Y+014173
X+019826Y+013750
X+021326Y+017250
X+019826Y+014250
X+024557Y+006192
X+017076Y+004500
X+019443Y+005775
X+017653Y+009369
X+023076Y+005039
X+022570Y+007894
X+021013Y+007343
X+021576Y+018250
X+023641Y+016424
X+024898Y+005697
X+022815Y+005590
X+020379Y+006183
X+021326Y+004500
X+015834Y+018690
X+026076Y+016500
X+018576Y+003750
X+019076Y+003500
X+023321Y+001945
X+019960Y+006181
X+016466Y+019246
X+015076Y+014250
X+018267Y+018243
X+019076Y+019250
X+016826Y+018250
X+023326Y+009566
X+023326Y+016250
X+024286Y+012799
X+022795Y+006102
X+015076Y+013750
X+025800Y+020971
X+021576Y+007750
X+020946Y+008630
X+021636Y+009470
X+016515Y+005944
X+020326Y+009250
X+040643Y+018750
X+040643Y+018000
X+040643Y+016000
X+030893Y+002750
X+033643Y+011500
X+036893Y+002750
X+040783Y+004820
X+033021Y+016794
X+032184Y+008669
X+038483Y+009253
X+038587Y+009983
X+032204Y+010750
X+031893Y+012500
X+031968Y+015250
X+032401Y+015826
X+034143Y+016250
X+034055Y+014763
X+033464Y+019724
X+031393Y+007750
X+029403Y+007649
X+038010Y+003467
X+037913Y+005944
X+037393Y+000629
X+040905Y+008267
X+040324Y+008712
X+039588Y+007532
X+038228Y+007716
X+037969Y+007414
X+038322Y+006114
X+036393Y+013250
X+036889Y+016181
X+035039Y+014173
X+034393Y+013750
X+035893Y+017250
X+034393Y+014250
X+039124Y+006192
X+031643Y+004500
X+034010Y+005775
X+032220Y+009369
X+037643Y+005039
X+037137Y+007894
X+035580Y+007343
X+036143Y+018250
X+038208Y+016424
X+039465Y+005697
X+037382Y+005590
X+034946Y+006183
X+035893Y+004500
X+030400Y+018690
X+040643Y+016500
X+033143Y+003750
X+033643Y+003500
X+037888Y+001945
X+034527Y+006181
X+031033Y+019246
X+029643Y+014250
X+032833Y+018243
X+033643Y+019250
X+031393Y+018250
X+037893Y+009566
X+037893Y+016250
X+038853Y+012799
X+037362Y+006102
X+029643Y+013750
X+040367Y+020971
X+036143Y+007750
X+035513Y+008630
X+036203Y+009470
X+031082Y+005944
X+034893Y+009250
T02
X+012687Y+020669
X+000994Y+020669
X+000994Y+000984
X+012687Y+000984
X+027254Y+020669
X+015561Y+020669
X+015561Y+000984
X+027254Y+000984
X+041821Y+020669
X+030128Y+020669
X+030128Y+000984
X+041821Y+000984
T03
X+001968Y+017677
X+001968Y+016889
X+001968Y+016102
X+001968Y+015314
X+001968Y+014527
X+001968Y+013740
X+001968Y+012952
X+001968Y+012165
X+001968Y+011377
X+001968Y+010590
X+001968Y+009803
X+001968Y+009015
X+001968Y+008228
X+003543Y+007362
X+004338Y+007362
X+005118Y+007362
X+005905Y+007362
X+010629Y+008267
X+010629Y+009055
X+010629Y+009842
X+010629Y+010629
X+010629Y+011417
X+010629Y+012204
X+010629Y+012992
X+010629Y+013779
X+010629Y+014566
X+010629Y+015354
X+010629Y+016141
X+010629Y+016929
X+010629Y+017716
X+010629Y+018503
X+010629Y+019291
X+010629Y+020078
X+016535Y+017677
X+016535Y+016889
X+016535Y+016102
X+016535Y+015314
X+016535Y+014527
X+016535Y+013740
X+016535Y+012952
X+016535Y+012165
X+016535Y+011377
X+016535Y+010590
X+016535Y+009803
X+016535Y+009015
X+016535Y+008228
X+018110Y+007362
X+018905Y+007362
X+019685Y+007362
X+020472Y+007362
X+025196Y+008267
X+025196Y+009055
X+025196Y+009842
X+025196Y+010629
X+025196Y+011417
X+025196Y+012204
X+025196Y+012992
X+025196Y+013779
X+025196Y+014566
X+025196Y+015354
X+025196Y+016141
X+025196Y+016929
X+025196Y+017716
X+025196Y+018503
X+025196Y+019291
X+025196Y+020078
X+031102Y+017677
X+031102Y+016889
X+031102Y+016102
X+031102Y+015314
X+031102Y+014527
X+031102Y+013740
X+031102Y+012952
X+031102Y+012165
X+031102Y+011377
X+031102Y+010590
X+031102Y+009803
X+031102Y+009015
X+031102Y+008228
X+032677Y+007362
X+033472Y+007362
X+034251Y+007362
X+035039Y+007362
X+039763Y+008267
X+039763Y+009055
X+039763Y+009842
X+039763Y+010629
X+039763Y+011417
X+039763Y+012204
X+039763Y+012992
X+039763Y+013779
X+039763Y+014566
X+039763Y+015354
X+039763Y+016141
X+039763Y+016929
X+039763Y+017716
X+039763Y+018503
X+039763Y+019291
X+039763Y+020078
T04
X+004118Y+010669
X+005118Y+010669
X+004118Y+009669
X+005118Y+009669
X+004118Y+008669
X+005118Y+008669
X+012844Y+013700
X+012844Y+014700
X+012844Y+009212
X+012844Y+010212
X+012844Y+007007
X+012844Y+008007
X+012844Y+011440
X+012844Y+012440
X+012844Y+004787
X+012844Y+005787
X+012844Y+002582
X+012844Y+003582
X+000866Y+008527
X+000866Y+009527
X+000827Y+011716
X+000827Y+012716
X+006191Y+017942
X+005191Y+017942
X+006191Y+018942
X+005191Y+018942
X+006191Y+019942
X+005191Y+019942
X+007795Y+019937
X+008795Y+019937
X+007795Y+018937
X+008795Y+018937
X+007795Y+017937
X+008795Y+017937
X+018685Y+010669
X+019685Y+010669
X+018685Y+009669
X+019685Y+009669
X+018685Y+008669
X+019685Y+008669
X+027411Y+013700
X+027411Y+014700
X+027411Y+009212
X+027411Y+010212
X+027411Y+007007
X+027411Y+008007
X+027411Y+011440
X+027411Y+012440
X+027411Y+004787
X+027411Y+005787
X+027411Y+002582
X+027411Y+003582
X+015433Y+008527
X+015433Y+009527
X+015394Y+011716
X+015394Y+012716
X+020758Y+017942
X+019758Y+017942
X+020758Y+018942
X+019758Y+018942
X+020758Y+019942
X+019758Y+019942
X+022362Y+019937
X+023362Y+019937
X+022362Y+018937
X+023362Y+018937
X+022362Y+017937
X+023362Y+017937
X+033251Y+010669
X+034251Y+010669
X+033251Y+009669
X+034251Y+009669
X+033251Y+008669
X+034251Y+008669
X+041978Y+013700
X+041978Y+014700
X+041978Y+009212
X+041978Y+010212
X+041978Y+007007
X+041978Y+008007
X+041978Y+011440
X+041978Y+012440
X+041978Y+004787
X+041978Y+005787
X+041978Y+002582
X+041978Y+003582
X+030000Y+008527
X+030000Y+009527
X+029961Y+011716
X+029961Y+012716
X+035324Y+017942
X+034324Y+017942
X+035324Y+018942
X+034324Y+018942
X+035324Y+019942
X+034324Y+019942
X+036929Y+019937
X+037929Y+019937
X+036929Y+018937
X+037929Y+018937
X+036929Y+017937
X+037929Y+017937
T05
X+008937Y+014133
X+008937Y+012133
X+006995Y+002742
X+008767Y+002742
X+023503Y+014133
X+023503Y+012133
X+021562Y+002742
X+023334Y+002742
X+038070Y+014133
X+038070Y+012133
X+036129Y+002742
X+037901Y+002742
M30
